<?xml version="1.0" encoding="utf-8"?>
<!-- Generator: Adobe Illustrator 21.1.0, SVG Export Plug-In . SVG Version: 6.00 Build 0)  -->
<svg version="1.1" id="Layer_1" xmlns="http://www.w3.org/2000/svg" xmlns:xlink="http://www.w3.org/1999/xlink" x="0px" y="0px"
	 viewBox="0 0 68.1 68.1" style="enable-background:new 0 0 68.1 68.1;" xml:space="preserve">
<style type="text/css">
	.st0{fill:#C4C8CC;}
</style>
<path class="st0" d="M50.2,34.7h-3.5c-1,0.1-1.9,1-1.9,2.1v3.7c0,1.1,0.8,1.9,1.8,1.9c0,0,0,0,0,0h3.6c1,0,1.8-0.8,1.8-1.9
	c0,0,0,0,0,0v-3.9C52.1,35.6,51.2,34.7,50.2,34.7L50.2,34.7z M34.6,1h-0.9C15.2,1,0.1,17,0.1,36.7H0.1c0,12,5.7,23.1,15.1,29.7V47.1
	c0.4,0,0.3,0.1,0.4,0.1h11.4c-0.1,0-0.1,0.1-0.2,0.1c0,0.1-0.1,0.1-0.1,0.1c-0.8,1.2-1.3,2.6-1.4,4c-0.1,1.1-0.1,2.2,0,3.4
	c0,0.6,0.1,1.1,0.3,1.7c0.3,1.2,0.8,2.2,1.5,3.2c2,3,4.8,4.5,8.3,4.6c0.8,0,1.6-0.1,2.4-0.3c2.4-0.5,4.6-2,6.1-4.1
	c1.4-2,2.2-4.4,2.1-6.9C45.7,51,45,49,43.9,47.3c0,0,0-0.1-0.1-0.1h11.5v0.2c0,5.7,0.1,11.3,0.1,17c7.9-6.7,12.5-17,12.6-27.8l0,0
	C68.1,17,53.1,1,34.6,1L34.6,1z M35.3,61.7c-4.4,0-7.9-3.8-7.9-8.5c0-4.7,3.6-8.4,8-8.4c4.4,0,7.9,3.8,7.9,8.5
	C43.3,57.9,39.8,61.7,35.3,61.7C35.4,61.7,35.4,61.7,35.3,61.7L35.3,61.7z M55.5,44.6c0,0.3,0,0.5,0,1H42.8c-0.1,0-0.2,0-0.3-0.1
	c-0.7-0.6-1.5-1.2-2.3-1.7c-1.8-1.1-4-1.5-6.1-1.2c-2.2,0.3-4.2,1.3-5.9,2.9c-0.1,0.1-0.3,0.2-0.5,0.2c-1.4,0-2.7-0.1-4.1-0.1
	l-5.2-0.1l-3.4-0.1v-6.7l0.1-0.2c0.1-0.6,0.1-1.1,0.3-1.7c0.2-1.2,0.8-2.2,1.7-3c0.4-0.3,0.9-0.6,1.5-0.7v8.8h1.6v0
	c0-1.6,0-3.2,0-4.8v-4.9c0,0,0-0.1,0.1-0.1c0.3-0.1,0.7-0.3,1-0.4c0,3.4,0.1,6.9,0.1,10.2H23V31.4h1.1c0,0,0,0.1,0,0.1
	c0,1.8,0,3.7,0,5.5l0,4.8V42c0.8,0,1.2-0.1,1.6-0.1V31.4h21.6c0.7,0,1.3,0,2,0.1c2,0.4,3.8,1.7,4.9,3.6c0.9,1.5,1.4,3.3,1.4,5.2
	C55.6,41.7,55.5,43.1,55.5,44.6L55.5,44.6z M35.5,46.9c-3.3-0.1-6.1,2.7-6.1,6.2s2.6,6.5,5.9,6.5c3.3,0.1,6.1-2.7,6.1-6.2
	C41.5,49.9,38.9,47,35.5,46.9C35.5,46.9,35.5,46.9,35.5,46.9z"/>
</svg>
