<?xml version="1.0" encoding="utf-8"?>
<!-- Generator: Adobe Illustrator 21.1.0, SVG Export Plug-In . SVG Version: 6.00 Build 0)  -->
<svg version="1.1" id="Layer_1" xmlns="http://www.w3.org/2000/svg" xmlns:xlink="http://www.w3.org/1999/xlink" x="0px" y="0px"
	 viewBox="0 0 68.1 68.1" style="enable-background:new 0 0 68.1 68.1;" xml:space="preserve">
<style type="text/css">
	.st0{fill:#C4C8CC;}
</style>
<path class="st0" d="M44.2,34.3H42c-0.7,0-1.2,0.6-1.2,1.3V38c0,0.7,0.5,1.2,1.1,1.2c0,0,0,0,0,0h2.2c0.6,0,1.1-0.5,1.1-1.2
	c0,0,0,0,0,0v-2.5C45.4,34.9,44.9,34.4,44.2,34.3L44.2,34.3z M34.4,13.1h-0.6c-11.6,0-21.1,10.1-21.1,22.4h0
	c0,7.5,3.6,14.5,9.5,18.7V42.1c0.2,0,0.2,0.1,0.2,0.1h7.2c0,0-0.1,0.1-0.1,0.1c0,0-0.1,0.1-0.1,0.1c-0.5,0.7-0.8,1.6-0.9,2.5
	c-0.1,0.7-0.1,1.4,0,2.1c0,0.4,0.1,0.7,0.2,1c0.2,0.7,0.5,1.4,0.9,2c1.3,1.9,3,2.8,5.2,2.9c0.5,0,1-0.1,1.5-0.2
	c1.5-0.3,2.9-1.3,3.8-2.6c0.9-1.2,1.4-2.8,1.3-4.3c-0.1-1.3-0.5-2.6-1.1-3.6c0,0,0,0,0,0h7.2v0.1c0,3.6,0.1,7.1,0.1,10.7
	c5-4.2,7.9-10.7,7.9-17.4l0,0C55.4,23.2,46,13.2,34.4,13.1L34.4,13.1z M34.9,51.3c-2.8,0-5-2.4-5-5.3c0-2.9,2.3-5.3,5-5.3
	c2.7,0,5,2.4,5,5.3C39.9,48.9,37.7,51.3,34.9,51.3C34.9,51.3,34.9,51.3,34.9,51.3L34.9,51.3z M47.6,40.5c0,0.2,0,0.3,0,0.6h-8
	c-0.1,0-0.1,0-0.2-0.1c-0.5-0.4-0.9-0.8-1.5-1.1c-1.2-0.7-2.5-1-3.8-0.8c-1.4,0.2-2.7,0.8-3.7,1.8c-0.1,0.1-0.2,0.1-0.3,0.1
	c-0.9,0-1.7,0-2.5-0.1L24.3,41l-2.1-0.1v-4.2l0.1-0.1c0-0.4,0.1-0.7,0.2-1c0.1-0.7,0.5-1.4,1.1-1.9c0.3-0.2,0.6-0.4,0.9-0.5v5.5h1v0
	c0-1,0-2,0-3v-3.1c0,0,0-0.1,0-0.1c0.2-0.1,0.4-0.2,0.7-0.3c0,2.2,0,4.3,0.1,6.4h1v-6.5h0.7c0,0,0,0,0,0.1c0,1.2,0,2.3,0,3.5l0,3
	v0.2c0.5,0,0.7,0,1,0v-6.7h13.6c0.4,0,0.8,0,1.2,0.1c1.3,0.3,2.4,1.1,3.1,2.2c0.6,1,0.9,2.1,0.9,3.3C47.6,38.7,47.6,39.6,47.6,40.5
	L47.6,40.5z M35,42c-2.1,0-3.8,1.7-3.9,3.9c0,2.2,1.6,4.1,3.7,4.1c2.1,0,3.8-1.7,3.9-3.9C38.7,43.9,37.1,42,35,42C35,42,35,42,35,42
	z"/>
</svg>
