<?xml version="1.0" encoding="utf-8"?>
<!-- Generator: Adobe Illustrator 21.1.0, SVG Export Plug-In . SVG Version: 6.00 Build 0)  -->
<svg version="1.1" id="Layer_1" xmlns="http://www.w3.org/2000/svg" xmlns:xlink="http://www.w3.org/1999/xlink" x="0px" y="0px"
	 viewBox="0 0 68.1 68.1" style="enable-background:new 0 0 68.1 68.1;" xml:space="preserve">
<style type="text/css">
	.st0{fill:#9097A7;}
</style>
<path class="st0" d="M0.9,34V8.7c0-4.4,3.4-7.8,7.8-7.8h50.5c4.6,0,8,3.3,8,8c0,13.5,0,27,0,40.5V59c0,4.8-3.3,8.1-8.1,8.1H9
	c-4.8,0-8.1-3.3-8.1-8.1L0.9,34L0.9,34z M8.6,28.9v27.3c0,2.3,0.9,3.2,3.2,3.2h44.6c2.2,0,3.1-0.9,3.1-3.1V29.9c0-0.3,0-0.7,0-1
	h-5.6c1.5,6.6,0.3,12.7-4,17.9c-4.3,5.3-10,7.8-16.8,7.5c-12.5-0.6-22-12.5-18.8-25.4H8.6L8.6,28.9z M46.7,34
	c0-7-5.7-12.7-12.7-12.7c-7,0-12.7,5.8-12.7,12.8c0,7,5.7,12.7,12.8,12.7C41.1,46.7,46.8,41,46.7,34z M46.8,14.9c0,1.2,0,2.5,0,3.7
	c0,1.7,1,2.7,2.7,2.7c2.4,0,4.9,0,7.3,0c1.6,0,2.6-1,2.6-2.6c0-2.5,0-5,0-7.5c0-1.5-1-2.5-2.5-2.6c-2.6-0.1-5.1-0.1-7.7,0
	c-1.5,0-2.4,1.1-2.4,2.6C46.8,12.4,46.8,13.6,46.8,14.9L46.8,14.9z"/>
</svg>
