<?xml version="1.0" encoding="utf-8"?>
<!-- Generator: Adobe Illustrator 21.1.0, SVG Export Plug-In . SVG Version: 6.00 Build 0)  -->
<svg version="1.1" id="Layer_1" xmlns="http://www.w3.org/2000/svg" xmlns:xlink="http://www.w3.org/1999/xlink" x="0px" y="0px"
	 viewBox="0 0 68.1 68.1" style="enable-background:new 0 0 68.1 68.1;" xml:space="preserve">
<style type="text/css">
	.st0{fill:#C4C8CC;}
</style>
<path class="st0" d="M8.2,5.4H7.7c-0.2,0-0.3,0.2-0.3,0.3v0.6c0,0.2,0.1,0.3,0.3,0.3c0,0,0,0,0,0h0.6c0.2,0,0.3-0.1,0.3-0.3
	c0,0,0,0,0,0V5.7C8.5,5.6,8.4,5.4,8.2,5.4L8.2,5.4z M5.7,0H5.6c-3,0-5.4,2.6-5.4,5.7h0c0,1.9,0.9,3.7,2.4,4.8V7.4c0.1,0,0,0,0.1,0
	h1.8c0,0,0,0,0,0c0,0,0,0,0,0C4.3,7.7,4.2,7.9,4.2,8.1c0,0.2,0,0.4,0,0.5c0,0.1,0,0.2,0,0.3c0.1,0.2,0.1,0.4,0.2,0.5
	c0.3,0.5,0.8,0.7,1.3,0.7c0.1,0,0.3,0,0.4-0.1c0.4-0.1,0.7-0.3,1-0.7c0.2-0.3,0.4-0.7,0.3-1.1c0-0.3-0.1-0.7-0.3-0.9c0,0,0,0,0,0H9
	v0c0,0.9,0,1.8,0,2.7c1.3-1.1,2-2.7,2-4.5l0,0C11.1,2.6,8.7,0,5.7,0L5.7,0z M5.8,9.8c-0.7,0-1.3-0.6-1.3-1.4C4.6,7.6,5.1,7,5.8,7
	c0.7,0,1.3,0.6,1.3,1.4C7.1,9.1,6.5,9.8,5.8,9.8C5.8,9.8,5.8,9.8,5.8,9.8L5.8,9.8z M9.1,7c0,0.1,0,0.1,0,0.2H7c0,0,0,0,0,0
	C6.9,7,6.7,6.9,6.6,6.9C6.3,6.7,6,6.6,5.6,6.7c-0.4,0.1-0.7,0.2-1,0.5c0,0-0.1,0-0.1,0c-0.2,0-0.4,0-0.7,0l-0.8,0l-0.5,0V6l0,0
	c0-0.1,0-0.2,0-0.3c0-0.2,0.1-0.4,0.3-0.5C3,5.2,3.1,5.2,3.1,5.1v1.4h0.3v0c0-0.3,0-0.5,0-0.8V5c0,0,0,0,0,0c0.1,0,0.1,0,0.2-0.1
	c0,0.6,0,1.1,0,1.6h0.3V4.9H4c0,0,0,0,0,0c0,0.3,0,0.6,0,0.9l0,0.8v0c0.1,0,0.2,0,0.3,0V4.9h3.5c0.1,0,0.2,0,0.3,0
	C8.4,5,8.7,5.2,8.8,5.5C9,5.7,9.1,6,9.1,6.3C9.1,6.5,9.1,6.8,9.1,7L9.1,7z M5.9,7.4c-0.5,0-1,0.4-1,1c0,0.6,0.4,1,0.9,1
	c0.5,0,1-0.4,1-1C6.8,7.9,6.4,7.4,5.9,7.4C5.9,7.4,5.9,7.4,5.9,7.4z"/>
</svg>
