<?xml version="1.0" encoding="utf-8"?>
<!-- Generator: Adobe Illustrator 21.1.0, SVG Export Plug-In . SVG Version: 6.00 Build 0)  -->
<svg version="1.1" id="Layer_1" xmlns="http://www.w3.org/2000/svg" xmlns:xlink="http://www.w3.org/1999/xlink" x="0px" y="0px"
	 viewBox="0 0 68.1 68.1" style="enable-background:new 0 0 68.1 68.1;" xml:space="preserve">
<style type="text/css">
	.st0{fill:#C4C8CC;}
</style>
<path class="st0" d="M40.3,34.1h-1.4c-0.4,0-0.7,0.4-0.7,0.8v1.4c0,0.4,0.3,0.7,0.7,0.7c0,0,0,0,0,0h1.4c0.4,0,0.7-0.3,0.7-0.7
	c0,0,0,0,0,0v-1.5C41,34.4,40.7,34.1,40.3,34.1L40.3,34.1z M34.3,21.1h-0.4c-7.1,0-12.9,6.2-12.9,13.7h0c0,4.6,2.2,8.9,5.8,11.4
	v-7.4c0.2,0,0.1,0.1,0.1,0.1h4.4c0,0,0,0-0.1,0.1s0,0-0.1,0.1c-0.3,0.5-0.5,1-0.5,1.5c-0.1,0.4-0.1,0.9,0,1.3c0,0.2,0,0.4,0.1,0.6
	c0.1,0.4,0.3,0.9,0.6,1.2c0.8,1.2,1.9,1.7,3.2,1.8c0.3,0,0.6,0,0.9-0.1c0.9-0.2,1.8-0.8,2.3-1.6c0.6-0.8,0.8-1.7,0.8-2.7
	c0-0.8-0.3-1.6-0.7-2.2c0,0,0,0,0,0h4.4V39c0,2.2,0,4.4,0,6.5c3-2.6,4.8-6.5,4.8-10.7l0,0C47.1,27.3,41.4,21.1,34.3,21.1L34.3,21.1z
	 M34.6,44.5c-1.7,0-3-1.5-3-3.3c0-1.8,1.4-3.2,3.1-3.2c1.7,0,3,1.5,3,3.2C37.6,43,36.3,44.5,34.6,44.5
	C34.6,44.5,34.6,44.5,34.6,44.5L34.6,44.5z M42.3,37.9c0,0.1,0,0.2,0,0.4h-4.9c0,0-0.1,0-0.1,0c-0.3-0.2-0.6-0.5-0.9-0.7
	c-0.7-0.4-1.5-0.6-2.3-0.5c-0.8,0.1-1.6,0.5-2.3,1.1c-0.1,0.1-0.1,0.1-0.2,0.1c-0.5,0-1,0-1.6,0l-2,0l-1.3,0v-2.6l0-0.1
	c0-0.2,0.1-0.4,0.1-0.6c0.1-0.5,0.3-0.9,0.7-1.1c0.2-0.1,0.4-0.2,0.6-0.3v3.4h0.6v0c0-0.6,0-1.2,0-1.8v-1.9c0,0,0,0,0,0
	c0.1,0,0.3-0.1,0.4-0.2c0,1.3,0,2.7,0,3.9h0.6v-4h0.4c0,0,0,0,0,0c0,0.7,0,1.4,0,2.1l0,1.8v0.1c0.3,0,0.5,0,0.6,0v-4.1h8.3
	c0.3,0,0.5,0,0.8,0.1c0.8,0.2,1.5,0.7,1.9,1.4c0.4,0.6,0.5,1.3,0.5,2C42.3,36.8,42.3,37.3,42.3,37.9L42.3,37.9z M34.6,38.8
	c-1.3,0-2.3,1-2.4,2.4c0,1.4,1,2.5,2.3,2.5c1.3,0,2.3-1,2.4-2.4C36.9,39.9,35.9,38.8,34.6,38.8C34.6,38.8,34.6,38.8,34.6,38.8z"/>
</svg>
