<?xml version="1.0" encoding="utf-8"?>
<!-- Generator: Adobe Illustrator 21.1.0, SVG Export Plug-In . SVG Version: 6.00 Build 0)  -->
<svg version="1.1" id="Layer_1" xmlns="http://www.w3.org/2000/svg" xmlns:xlink="http://www.w3.org/1999/xlink" x="0px" y="0px"
	 viewBox="0 0 158.9 120.7" style="enable-background:new 0 0 158.9 120.7;" xml:space="preserve">
<style type="text/css">
	.st0{fill:#C5C9CD;}
	.st1{fill:#EAEAEA;}
	.st2{fill:#9198A8;}
	.st3{fill:#7F8899;}
	.st4{fill:none;}
	.st5{fill:#231F20;}
	.st6{font-family:'MuseoSansRounded-300';}
	.st7{font-size:5.023px;}
	.st8{fill:none;stroke:#EB80A7;stroke-width:3;stroke-linecap:round;stroke-linejoin:round;stroke-miterlimit:10;}
</style>
<rect x="79.9" y="-66.1" class="st0" width="55.8" height="37.9"/>
<rect x="135.7" y="-66.1" class="st1" width="55.8" height="37.9"/>
<rect x="24" y="-66.1" class="st2" width="55.8" height="37.9"/>
<rect x="-31.8" y="-66.1" class="st3" width="55.8" height="37.9"/>
<rect x="82.9" y="86" class="st4" width="84.8" height="9.7"/>
<text transform="matrix(1 0 0 1 82.9395 89.5625)" class="st5 st6 st7">GRAPHIC DESIGNER</text>
<path class="st8" d="M36.5,47.5c-1.8-0.9-2.7-3.1-1.4-4.7c0.8-1,2.1-1.4,3.4-1.7c3-0.6,4.5-1.6,6.5-3.8c0.1-0.1,0.2-0.2,0.3-0.1
	c0.1,0.1,0.2,0.3,0.2,0.4c-0.1,0.9-0.4,1.7-0.8,2.5c-2.4,6.2-4.8,12.4-7.3,18.6c-1.8,4.6-3.3,9.9-6.7,13.6c-6,6.4-17.9,1.9-18-6.8
	c-0.1-4.2,2.7-7.7,7-8c3.1-0.3,6.1,1.2,6,4.6c-0.1,2.7-3.3,5.1-5.9,3.8"/>
<path class="st8" d="M109.8,51.4c-1.6,3.6-2.9,7.2-4.3,10.9c-0.8,2.1-2.1,5.3-0.6,7.4c1.2,1.7,3.5,1.5,4.8,0.1c2.4-2.7,3.8-6,5-9.4
	c1.9-5.1,3.5-10.4,5-15.8"/>
<path class="st8" d="M108.6,54.1c-1.6-1.5-3.8-2.9-6-1.9c-5,2.2-7.8,9.6-7.2,14.8c0.3,1.7,1.3,4.1,3.3,4.5c2.4,0.4,4.6-2.5,5.6-4.3"
	/>
<path class="st8" d="M112.3,67.6c0.8,3,4.1,4.3,6.4,2.4c1.9-1.6,3.1-4.2,4.1-6.5c2.4-5.5,3.8-11.4,5.2-17.1c0.2-0.6,0.3-1.3,0.5-1.9
	"/>
<path class="st8" d="M121.3,67c0.3,2.2,1.7,4.7,4.2,3.1c1.7-1.1,3.1-3.1,4-5c0.6-1.3,0.9-2.8,2.1-3.5c0.6-0.4,1.4-0.6,2.1-0.8
	c3-0.7,6.6-1.8,8.2-4.5c1-1.7,0.6-4.1-1.4-4.7c-5.8-1.8-9.5,7.5-10.4,11.6c-0.3,1.2-0.4,2.4-0.3,3.6c0.3,1.8,1.6,3.1,3.3,3.6
	c6,1.6,9.5-7.5,14.3-9.3c0.9-0.4,2-0.4,2.9,0.1c0.9,0.6,1.3,1.6,1.4,2.6c0.6,7.7-8.7,11.6-14.9,12.8c-9.7,2.1-18.7-0.9-28.4-1
	c-8.4,0-16.6,2.4-23.7,6.8"/>
<path class="st8" d="M72.9,53.9c-1.6,4.8-4,9.5-5.1,14.4c-0.3,1.4-0.7,4.2,1.3,4.6c1.4,0.3,3.3-0.8,4.2-1.8c1.9-2,3-4.8,3.6-7.3"/>
<path class="st8" d="M71.4,58c-1.4-2.4-3.4-4.6-6.3-3c-2.9,1.6-4.6,4.9-5.5,7.9c-0.8,2.6-2.1,7.6,0.2,9.8c3.6,3.3,7.2-3,8.4-5.5"/>
<path class="st8" d="M40.9,65.1c1.3-3,2.7-6,4.6-8.5c1.3-1.7,3.5-3.5,5.8-3.1c4.2,0.8,3.2,7.4,2.1,10.1c-0.8,2-1.6,4.3-3.7,5.4
	c-1.6,0.8-5,1-5.3-1.4c-0.3-2.3,2.2-4.2,4.3-3.3c1,0.4,1.8,1.3,2.3,2.3c1.6,3.1,1,6.8-0.1,10c-0.1,0.3-0.2,0.5-0.3,0.7
	c-0.8,2.1-2.1,4.1-4,5.5c-1.6,1.2-4,2.3-6,1.7c-2.8-0.8-3.1-4.4-1.3-6.3c1.7-1.9,4.3-2.1,6.7-2.1c2.3,0,4.6-0.4,6.7-1.7
	c2.1-1.4,3.7-3.4,5.1-5.5c0.3-0.3,0.4-0.6,0.6-0.9"/>
<path class="st8" d="M75,42.8c3.9-0.3,8.3-1.9,10.9-5c0.3-0.4,0.6-0.8,0.7-1.3c0.2-1.5-1.6-2.3-2.8-2.3c-1.8,0.1-3.3,1.3-4.1,2.7
	c-0.9,1.6-1.2,3.4-1.1,5.2c0.1,1.3,0.4,2.8,1.5,3.4c3.1,1.6,6.7-1.9,8.2-4.3c0.4-0.6,1-2,1.8-2c-0.1,0-1.8,5.7-1.9,6.3
	c-1.6,4.6-3,9.2-4.2,13.8c-1.1,4.1-1.9,8.2-2.4,12.4c-0.1,0.9-0.3,1.9-0.1,2.8c0,0.2,0.1,0.4,0.3,0.4c0.1,0,0.2-0.1,0.3-0.3
	c1.1-1.7,1.9-3.5,2.9-5.3c0,0,3-5.7,5.7-10.4c2.6-4.7,4.6-7.7,5.2-8.6c1.6-2.3,3.5-5.1,6.5-8.2c1.9-1.9,3-2.7,4.3-3.3
	c2.1-0.9,4-1,5.7-1.1c2.1-0.1,2.3,0.3,6.4,0.5c2.3,0.2,3.8,0.2,5.4,0.2c4.2,0,5-0.3,5.5-0.5c0.9-0.4,2.3-1.3,3.5-3.5"/>
</svg>
