<?xml version="1.0" encoding="utf-8"?>
<!-- Generator: Adobe Illustrator 21.1.0, SVG Export Plug-In . SVG Version: 6.00 Build 0)  -->
<svg version="1.1" id="Layer_1" xmlns="http://www.w3.org/2000/svg" xmlns:xlink="http://www.w3.org/1999/xlink" x="0px" y="0px"
	 viewBox="0 0 357 252" style="enable-background:new 0 0 357 252;" xml:space="preserve">
<style type="text/css">
	.st0{fill:none;stroke:#FFC843;stroke-width:8;stroke-linecap:round;stroke-linejoin:round;stroke-miterlimit:10;}
</style>
<path class="st0" d="M66,89.9c-4.4-2.2-6.6-7.6-3.4-11.5c2-2.4,5.1-3.4,8.3-4.2c7.3-1.5,11-3.9,15.9-9.3c0.2-0.2,0.5-0.5,0.7-0.2
	c0.2,0.2,0.5,0.7,0.5,1c-0.2,2.2-1,4.2-2,6.1c-5.9,15.1-11.7,30.3-17.8,45.4c-4.4,11.2-8.1,24.2-16.4,33.2
	c-14.7,15.6-43.7,4.6-44-16.6C7.6,123.6,14.5,115,25,114.3c7.6-0.7,14.9,2.9,14.7,11.2c-0.2,6.6-8.1,12.5-14.4,9.3"/>
<path class="st0" d="M245,99.4c-3.9,8.8-7.1,17.6-10.5,26.6c-2,5.1-5.1,12.9-1.5,18.1c2.9,4.2,8.5,3.7,11.7,0.2
	c5.9-6.6,9.3-14.7,12.2-23c4.6-12.5,8.5-25.4,12.2-38.6"/>
<path class="st0" d="M242.1,106c-3.9-3.7-9.3-7.1-14.7-4.6c-12.2,5.4-19.1,23.4-17.6,36.1c0.7,4.2,3.2,10,8.1,11
	c5.9,1,11.2-6.1,13.7-10.5"/>
<path class="st0" d="M251.1,139c2,7.3,10,10.5,15.6,5.9c4.6-3.9,7.6-10.3,10-15.9c5.9-13.4,9.3-27.8,12.7-41.8
	c0.5-1.5,0.7-3.2,1.2-4.6"/>
<path class="st0" d="M273.1,137.5c0.7,5.4,4.2,11.5,10.3,7.6c4.2-2.7,7.6-7.6,9.8-12.2c1.5-3.2,2.2-6.8,5.1-8.5c1.5-1,3.4-1.5,5.1-2
	c7.3-1.7,16.1-4.4,20-11c2.4-4.2,1.5-10-3.4-11.5c-14.2-4.4-23.2,18.3-25.4,28.3c-0.7,2.9-1,5.9-0.7,8.8c0.7,4.4,3.9,7.6,8.1,8.8
	c14.7,3.9,23.2-18.3,34.9-22.7c2.2-1,4.9-1,7.1,0.2c2.2,1.5,3.2,3.9,3.4,6.4c1.5,18.8-21.2,28.3-36.4,31.3
	c-23.7,5.1-45.7-2.2-69.4-2.4c-20.5,0-40.5,5.9-57.9,16.6"/>
<path class="st0" d="M154.9,105.5c-3.9,11.7-9.8,23.2-12.5,35.2c-0.7,3.4-1.7,10.3,3.2,11.2c3.4,0.7,8.1-2,10.3-4.4
	c4.6-4.9,7.3-11.7,8.8-17.8"/>
<path class="st0" d="M151.2,115.5c-3.4-5.9-8.3-11.2-15.4-7.3c-7.1,3.9-11.2,12-13.4,19.3c-2,6.4-5.1,18.6,0.5,23.9
	c8.8,8.1,17.6-7.3,20.5-13.4"/>
<path class="st0" d="M76.7,132.9c3.2-7.3,6.6-14.7,11.2-20.8c3.2-4.2,8.5-8.5,14.2-7.6c10.3,2,7.8,18.1,5.1,24.7
	c-2,4.9-3.9,10.5-9,13.2c-3.9,2-12.2,2.4-12.9-3.4c-0.7-5.6,5.4-10.3,10.5-8.1c2.4,1,4.4,3.2,5.6,5.6c3.9,7.6,2.4,16.6-0.2,24.4
	c-0.2,0.7-0.5,1.2-0.7,1.7c-2,5.1-5.1,10-9.8,13.4c-3.9,2.9-9.8,5.6-14.7,4.2c-6.8-2-7.6-10.7-3.2-15.4c4.2-4.6,10.5-5.1,16.4-5.1
	c5.6,0,11.2-1,16.4-4.2c5.1-3.4,9-8.3,12.5-13.4c0.7-0.7,1-1.5,1.5-2.2"/>
<path class="st0" d="M160,78.4c9.5-0.7,20.3-4.6,26.6-12.2c0.7-1,1.5-2,1.7-3.2c0.5-3.7-3.9-5.6-6.8-5.6c-4.4,0.2-8.1,3.2-10,6.6
	c-2.2,3.9-2.9,8.3-2.7,12.7c0.2,3.2,1,6.8,3.7,8.3c7.6,3.9,16.4-4.6,20-10.5c1-1.5,2.4-4.9,4.4-4.9c-0.2,0-4.4,13.9-4.6,15.4
	c-3.9,11.2-7.3,22.5-10.3,33.7c-2.7,10-4.6,20-5.9,30.3c-0.2,2.2-0.7,4.6-0.2,6.8c0,0.5,0.2,1,0.7,1c0.2,0,0.5-0.2,0.7-0.7
	c2.7-4.2,4.6-8.5,7.1-12.9c0,0,7.3-13.9,13.9-25.4c6.4-11.5,11.2-18.8,12.7-21c3.9-5.6,8.5-12.5,15.9-20c4.6-4.6,7.3-6.6,10.5-8.1
	c5.1-2.2,9.8-2.4,13.9-2.7c5.1-0.2,5.6,0.7,15.6,1.2c5.6,0.5,9.3,0.5,13.2,0.5c10.3,0,12.2-0.7,13.4-1.2c2.2-1,5.6-3.2,8.5-8.5"/>
</svg>
