<?xml version="1.0" encoding="utf-8"?>
<!-- Generator: Adobe Illustrator 21.1.0, SVG Export Plug-In . SVG Version: 6.00 Build 0)  -->
<svg version="1.1" id="Layer_2" xmlns="http://www.w3.org/2000/svg" xmlns:xlink="http://www.w3.org/1999/xlink" x="0px" y="0px"
	 viewBox="0 0 357 252" style="enable-background:new 0 0 357 252;" xml:space="preserve">
<style type="text/css">
	.st0{fill:#FFC843;}
</style>
<g id="I">
	<path class="st0" d="M37.4,159.6c-3.8,0-7.5-0.7-11.3-2c-11.6-4.2-18.8-14.2-19-26.2c-0.1-13,8.5-22.9,21.1-24
		c6.1-0.4,11.6,1.3,15.1,4.6c2.9,2.8,4.2,6.5,4.1,10.7c-0.1,4.8-3.2,9.4-7.7,12c-4.1,2.5-8.7,2.6-12.6,0.6c-1.7-0.9-2.5-3-1.6-4.9
		c0.9-1.7,3-2.5,4.9-1.6c2.3,1.2,4.5,0.3,5.6-0.4c2.3-1.3,3.9-3.8,4.1-6.1c0.1-2.2-0.4-3.9-1.9-5.2c-2-1.9-5.5-2.9-9.4-2.6
		c-8.7,0.9-14.6,7.5-14.5,16.8c0.1,9,5.4,16.2,14.2,19.4c8,2.9,19.3,2.2,26.3-6.1c4.9-5.8,9-16.1,13.6-27.8l1.4-3.8
		c3-7.8,6.2-15.8,9.3-23.7c2.6-6.7,5.2-13.3,7.8-20c-2.8,1.6-5.9,2.8-10.1,3.6c-2.6,0.6-5.2,1.3-6.4,2.9l-0.1,0.1
		c-0.6,0.7-0.9,1.6-0.6,2.6c0.3,1.4,1.4,2.9,3,3.6c1.7,0.9,2.5,3,1.6,4.9c-0.9,1.9-3,2.5-4.9,1.6c-3.5-1.7-6.1-4.9-6.9-8.7
		c-0.7-3.2,0-6.2,2-8.7c2.5-3.5,6.7-4.8,10.6-5.6c6.4-1.3,9.7-3.3,14.5-8.5c1.7-1.7,3.8-1.7,5.1-1c1.4,0.7,2.5,2.3,2.5,4.2
		c0,0.1,0,0.3,0,0.4c-0.3,2.3-1,4.6-2.2,7.4c-3,7.8-6.1,15.6-9.3,23.6c-3,8-6.2,15.8-9.3,23.7l-1.4,3.8c-4.9,12.4-9.1,23.2-14.9,30
		C54.6,155.9,46.2,159.6,37.4,159.6z"/>
</g>
<path class="st0" d="M125.4,121.6c-1.9-0.6-3.9,0.4-4.5,2.3c-0.2,0.7-0.5,1.5-0.8,2.3c-2.2,5.9-5.9,14.6-8.5,18.3
	c0-2.3-0.3-5.1-0.9-7.8c5.2-7.1,8.4-18.5,5.5-26.6c-2-5.8-7.1-9.1-14-9.3h-0.4c-14,0-20.4,16.2-24.3,25.9l-0.7,1.6
	c-0.7,1.7,0.1,3.9,2,4.6c1.7,0.7,3.9-0.1,4.6-2l0.7-1.7c3.3-8.5,8.4-21.4,17.7-21.4c0.1,0,0.1,0,0.3,0c5.2,0.1,6.7,2.6,7.4,4.5
	c1.4,4.3,0.1,11-2.5,16.4l-0.1-0.1c-3.6-4.3-10.1-5.6-15.1-3.2c-3.9,2-5.9,5.9-5.1,10c0.9,3.5,3.6,6.1,7.5,7.4
	c3.5,1.2,7.2,1,10.1-0.3c0.1,1.3,0.1,2.6,0,3.9c-0.1,1-0.3,2-0.4,3c-1,0.4-2.2,0.6-3.5,0.9c-1.4,0.1-3,0.4-4.6,0.6
	c-3.2,0.3-6.7,0.7-10,1.6c-3.9,1-6.9,2.6-9.1,4.8c-2.6,2.5-4.2,5.9-4.2,9.6c0,3.9,1.7,7.5,4.8,9.7c2,1.4,4.6,2.3,7.5,2.3
	c0.4,0,0.7,0,1,0.3c2.3-0.1,4.9-1,7.7-2.5c8-4.2,14-12.3,16.6-21.7c2.8-1.3,5.1-3.2,6.8-5.4c1.2-1.7,2.6-4.1,3.9-6.8
	c2.9-5.8,5.6-12.9,6.8-16.5C128.3,124.2,127.2,122.2,125.4,121.6z M102.3,135.1c-1,0.9-3.6,1.3-5.9,0.6c-0.9-0.3-2.3-1-2.6-2.2
	c-0.1-1,1.4-1.9,1.4-1.9c1.9-0.9,4.8-0.3,6.2,1.6c0.4,0.4,0.9,1,1.2,1.7C102.5,135,102.5,135.1,102.3,135.1z M90.2,169.8
	c-1.9,1-3.5,1.4-4.8,1.6c-1.6,0.1-3-0.1-3.9-0.9c-1.2-0.9-1.9-2.3-1.9-3.9c0-1.6,0.7-3.3,1.9-4.3c0.1-0.1,0.1-0.1,0.1-0.1
	c1.3-1.3,3.2-2.2,5.8-2.9c2.9-0.7,5.9-1,9.1-1.4c1.6-0.1,3.2-0.3,4.9-0.6C99,162.7,95,167.2,90.2,169.8z"/>
<path class="st0" d="M152.2,101.8c-0.1-0.1-0.1-0.1-0.2-0.2c-1.9-1.3-4.1-2.3-6.9-2.6c-10.7-1.2-18.7,9.1-22.6,19.1
	c-0.8,2.1-1.8,4.9-2.4,8.1c-1,5-1.2,10.9,0.8,16.4c0.2,0.6,0.5,1.3,0.8,1.9c1.6,3,4.1,5.4,6.8,6.1c0.7,0.3,1.6,0.3,2.3,0.3
	c1.6,0,3.2-0.4,4.6-1.3c3.1-1.9,5-4.8,6.5-7.5C142,142.1,162.4,107.6,152.2,101.8z M143.9,120.6l-0.1,0.2c0,0,0,0.1,0,0.1
	c-1.1,2.4-2.1,4.8-3.2,7.1c-1.8,4.1-3.3,8.4-5.8,12.1c-0.8,1.2-1.8,2.7-3.2,3.2c-1.7,0.6-2.5-0.9-3.2-2.1c-3.5-6.7-0.9-15.6,1-20.3
	c2.6-6.8,8-14.6,14.2-14.6h0.9c1.9,0.3,3.2,0.9,4.7,2.1L143.9,120.6z"/>
<path class="st0" d="M167.2,132.8c-0.6,1-1.2,2.2-1.8,3.3c-1.7,3.2-3.6,6.9-7,9.7c-2,1.6-4.5,2.5-7,2.5c-1.7,0-3.2-0.4-4.7-1.2
	c-2.1-1.1-3.7-2.7-4.7-5c0,0,0,0,0,0c0,0,0,0,0,0c0,0,0-0.1-0.1-0.1c0,0,0-0.1-0.1-0.1c-0.2-0.4-0.3-0.8-0.4-1.2
	c-0.6-1.7-0.8-3.8-0.8-5.9c0.3-6.1,2.7-12,4.7-17.2l0.6-1.4c0.2-0.4,0.3-0.7,0.4-1.1l0,0c0,0,0,0,0,0c0.6-1.5,1.1-2.8,1.6-4.1
	c0.4-0.8,0.7-1.6,1.1-2.4c0,0,0.1,0.1,0.1,0.1c0.3-0.8,0.7-1.7,1.1-2.5c0.5-1.3,1.1-2.7,1.8-4.2c-0.1-0.1-0.1-0.1-0.2-0.2
	c0,0,0-0.1,0.1-0.1c0.3-0.7,0.6-1.4,0.9-2.1c0.2-0.4,0.5-0.9,0.8-1.2c1.1-1.2,2.7-1.4,4.2-0.9c2,0.9,2.9,3.2,2,5.1
	c-1.1,2.6-2,4.6-2.7,6.4c-1.2,2.7-2.2,5.1-3.7,8.6v0c0,0,0,0,0,0c0,0,0,0.1,0,0.1c0,0,0,0.1-0.1,0.1c-0.1,0.4-0.3,0.7-0.5,1.1
	l-0.6,1.4c-0.4,1.1-0.8,2.1-1.2,3.2c0,0,0,0,0,0c-1.5,3.9-2.7,7.8-3,11.6c-0.2,2,0.3,4.5,1.8,5.2c1.1,0.6,2.6,0.3,3.6-0.4
	c2.1-1.7,3.5-4.3,5-7.2c0.6-1.2,1.4-2.5,2-3.8c1.1-1.9,3.5-2.5,5.1-1.3C167.8,128.4,168.2,130.9,167.2,132.8z"/>
<path class="st0" d="M177.8,156.4c-2.3,0-4.1-1.7-4.3-4.1c-0.4-2.6-0.1-5.2,0.1-7.4c0.1-1.7,0.4-3.5,0.7-5.2
	c3.2-20,8.7-48.8,17.9-68.5c0.9-1.7,3-2.6,4.8-1.7c1.7,0.9,2.6,3,1.7,4.8c-8.5,17.8-13.6,44.1-16.8,63.4c1.2-2.2,7.4-13.9,13-23.7
	c4.6-8.4,8.5-14.3,10.6-17.7c0.6-1,1.2-1.7,1.4-2.3c7.7-12.6,20.1-29.5,40.4-30.8c5.6-0.4,11,0.4,16.2,1.2c3.5,0.4,6.8,1,10,1.2
	c6.4,0.4,17.1-1.2,19.1-7.1c0.6-1.9,2.6-2.9,4.6-2.3c1.9,0.6,2.9,2.8,2.3,4.6c-3.5,10.6-18.2,12.4-26.3,12
	c-3.6-0.1-7.2-0.7-10.7-1.2c-5.1-0.7-10-1.4-14.8-1.2c-12.9,0.9-23.9,9.6-34.6,27.4c-0.3,0.6-0.9,1.3-1.6,2.5
	c-2,3.2-5.8,9.1-10.4,17.2c-6.1,10.9-13,23.9-13.2,24c-0.4,0.7-0.9,1.6-1.3,2.5c-1.7,3.3-3.5,6.7-5.5,10
	C180.4,156.1,178.6,156.4,177.8,156.4z M180.7,151.9L180.7,151.9L180.7,151.9z"/>
<path class="st0" d="M179.1,88.8c-2.6,0-5.4-0.7-7.5-2.2c-3-2-5.1-5.1-5.9-9.1c0-0.3-0.1-0.4-0.1-0.7c-0.1,0-0.3,0.1-0.4,0.1
	c-4.8,1.4-10.1,2.5-15.9,3.3c-2,0.3-3.8-1.2-4.1-3c-0.3-2,1.2-3.8,3-4.1c5.5-0.7,10.4-1.7,15.1-3c0.6-0.1,1-0.3,1.6-0.4
	c0-1.9,0.1-3.9,0.4-5.9c0.6-3.6,2-6.7,4.1-9c2.6-2.6,6.2-4.2,9.7-3.8c2.9,0.3,5.4,1.7,6.9,4.1c1.4,2,1.9,4.3,1.4,6.8
	c-0.9,4.6-5.2,8-6.9,9.1c-2.5,1.6-5.2,2.9-8,3.9c0.1,0.4,0.1,0.9,0.3,1.2c0.4,2.3,1.4,3.8,2.8,4.6c1.6,1,3.6,1.3,5.4,0.9
	c2.5-0.6,4.8-2.9,6.9-5.1l0.4-0.4c2-2,3.5-3.6,4.5-5.2c1.2-1.6,3.5-2,5.1-0.9s2,3.5,0.9,5.1c-1.3,1.9-3,3.8-5.4,6.1l-0.4,0.4
	c-2.8,2.8-5.9,5.9-10.3,6.9C181.4,88.6,180.2,88.8,179.1,88.8z M177.9,57.9c-1.2,0-2.6,0.6-3.5,1.6c-1.2,1.2-1.9,2.9-2.2,5.1
	c-0.1,0.9-0.1,1.6-0.3,2.5c1.6-0.7,3-1.4,4.3-2.3c2-1.3,3.6-3.2,3.8-4.5c0-0.3,0.1-0.7-0.3-1.3c-0.4-0.6-0.9-0.9-1.6-1
	C178.2,57.9,178,57.9,177.9,57.9z"/>
<path class="st0" d="M238.2,101.8c-0.1-0.1-0.1-0.1-0.2-0.2c-1.9-1.3-4.1-2.3-6.9-2.6c-10.7-1.2-18.7,9.1-22.6,19.1
	c-0.8,2.1-1.8,4.9-2.4,8.1c-1,5-1.2,10.9,0.8,16.4c0.2,0.6,0.5,1.3,0.8,1.9c1.6,3,4.1,5.4,6.8,6.1c0.7,0.3,1.6,0.3,2.3,0.3
	c1.6,0,3.2-0.4,4.6-1.3c3.1-1.9,5-4.8,6.5-7.5C228,142.1,248.4,107.6,238.2,101.8z M229.9,120.6l-0.1,0.2c0,0,0,0.1,0,0.1
	c-1.1,2.4-2.1,4.8-3.2,7.1c-1.8,4.1-3.3,8.4-5.8,12.1c-0.8,1.2-1.8,2.7-3.2,3.2c-1.7,0.6-2.5-0.9-3.2-2.1c-3.5-6.7-0.9-15.6,1-20.3
	c2.6-6.8,8-14.6,14.2-14.6h0.9c1.9,0.3,3.2,0.9,4.7,2.1L229.9,120.6z"/>
<path class="st0" d="M289.2,86.6c-0.1,0.7-0.3,1.3-0.6,2c-0.1,0.7-0.4,1.6-0.6,2.3l-0.7,3c-2.3,8.8-4.6,18.1-7.7,27.1
	c-1.6,4.9-3.2,10-5.6,14.9c-2.3,4.8-5.6,10.6-11.3,12.9c-1.4,0.6-2.9,0.9-4.3,0.9c-1.7,0-3.5-0.4-4.9-1.4c-2.2-1.4-3.8-3.6-4.5-6.4
	c-2.2,3.6-5.9,8-11.4,8c-0.4,0-0.9,0-1.4-0.1c-2.8-0.3-5.2-1.7-6.9-3.9c-0.7-1-1.3-2-1.7-3c-1.6-4.1-1.2-8.5-0.9-10
	c0.6-3.9,1.9-7.4,3.3-10.9l0.6-1.3c2.6-6.7,5.5-13.5,8.8-20.7c0-0.1,0.1-0.3,0.1-0.3c0-0.1,0.1-0.1,0.1-0.3l0,0
	c0.1-0.1,0.1-0.3,0.3-0.3c0.1-0.1,0.1-0.1,0.3-0.3c0,0,0.1,0,0.1-0.1c0.1,0,0.1-0.1,0.3-0.1l0,0c0.1,0,0.3-0.1,0.4-0.1
	c0.3-0.1,0.6-0.1,0.9-0.3c0.1,0,0.3,0,0.6,0c0.1,0,0.3,0,0.4,0c0.1,0,0.3,0,0.4,0.1c0.1,0,0.3,0,0.3,0.1c0.1,0,0.1,0.1,0.3,0.1
	s0.1,0.1,0.3,0.1c0.1,0,0.1,0.1,0.3,0.1l0,0c0.1,0.1,0.3,0.1,0.3,0.3c0.1,0.1,0.1,0.1,0.3,0.3c0,0,0,0.1,0.1,0.1
	c0,0.1,0.1,0.1,0.1,0.3c0.3,0.4,0.4,0.9,0.4,1.3c0,0.1,0,0.3,0,0.6c0,0.1,0,0.3,0,0.4c0,0.1,0,0.3-0.1,0.4c0,0.1,0,0.3-0.1,0.3
	c0,0,0,0.1-0.1,0.3c-3.2,7.2-6.1,13.9-8.7,20.4l-0.4,1.3c-1.3,3.2-2.5,6.2-2.9,9.3c-0.4,3,0,6.1,1.2,7.7c0.6,0.7,1.2,1,2,1.2
	c2.3,0.3,4.8-2.2,7.2-7.4c7.8-16.2,12.6-33.6,17.1-50.4c0.4-1.6,1.7-2.6,3.3-2.6c0,0,0.1,0,0.3,0c0.1,0,0.3,0,0.4,0
	c0.1,0,0.1,0,0.3,0c2,0.3,3.3,2.2,2.9,4.2c-1.3,7.5-3.2,14.8-5.1,21.9l-0.3,1.2c-1.7,6.4-3.6,12.9-5.5,19.1l-0.3,1.3
	c-0.9,3.2-1.7,6.4-1.6,9.3c0.1,1.4,0.6,2.5,1.4,3c0.7,0.4,1.6,0.4,2.6,0c3.3-1.4,5.8-5.8,7.5-9.4c2.2-4.5,3.8-9.1,5.4-14
	c2.9-8.7,5.2-17.4,7.5-26.5l0.9-3.2c0.3-0.9,0.4-1.4,0.6-2.2c0.1-0.7,0.4-1.6,0.6-2.3c0.6-1.9,2.6-3,4.5-2.5
	C288.6,82.7,289.8,84.7,289.2,86.6z"/>
<path class="st0" d="M283.9,151c-0.3,0-0.6,0-1,0c-7.1-0.6-11.1-8.1-11.4-14.8c-0.1-7.4,1.6-14.5,3.3-21.3c0.4-1.4,0.7-2.9,1-4.3
	c0.6-2.3,1.2-4.8,1.7-7.1c1.4-5.9,2.9-12.2,4.2-18.2c0.4-2,2.3-3.2,4.2-2.9c2,0.4,3.2,2.3,2.9,4.2c-1.3,6.2-2.8,12.4-4.2,18.5
	c-0.6,2.3-1.2,4.6-1.7,7.1c-0.3,1.4-0.7,2.9-1.2,4.5c-1.6,6.4-3.3,13-3.2,19.4c0.1,3,1.9,7.5,4.8,7.8c2.3,0.3,5.2-2.6,6.8-5.4
	c1.9-3.3,2.8-7.2,3.9-11.3c0.4-1.4,0.7-3,1.2-4.5c0.6-1.9,2.6-3,4.5-2.5c1.9,0.6,3,2.6,2.5,4.5c-0.4,1.4-0.7,2.9-1.2,4.2
	c-1.2,4.3-2.3,8.8-4.5,13C294.1,146.5,289.4,151,283.9,151z"/>
<path class="st0" d="M195,175.8c-1.3,0-2.6-0.7-3.2-2c-0.9-1.7-0.1-3.9,1.6-4.9l0.7-0.4c9-5.1,19.3-9,30.8-11.3
	c11.7-2.3,23-2.5,33.4-2.5c5.9,0,12,0.3,17.8,0.6c10.7,0.6,21.7,1,32.4,0.1c7.8-0.7,16.2-1.6,23.4-4.8c5.1-2.2,9-5.4,11-9
	c1.9-3.2,2.2-7.8-0.7-9.7c-1.3-0.7-2-0.7-2.5-0.7c-4.5-0.1-8.3,3.3-12.4,7.7c-3.8,4.1-9.7,9.4-18.1,9.4c-2.3,0-4.2-0.3-5.8-1
	c-8.4-3-11.6-12.4-8.4-25.6c2.3-10.3,6.9-17.8,13.5-21.6c4.1-2.3,9-2.2,12.7,0.3c3.3,2.2,5.1,6.1,4.6,10.3
	c-0.4,4.8-3.9,9.6-9.1,12.6c-4.8,2.9-10.1,4.2-15.3,5.4c-0.4,4.8,0.1,10.3,4.8,12c0.9,0.3,1.9,0.4,3.2,0.4c4.3,0,8.3-2.2,12.9-7.1
	c4.1-4.2,10-10.3,17.9-10c1.9,0,3.8,0.6,5.9,1.7l0.1,0.1c6.7,4.3,6.8,13.3,3.2,19.5c-2.8,4.9-8,9.1-14.5,11.9
	c-8.3,3.6-17.2,4.6-25.8,5.4c-11.3,1-22.6,0.4-33.4-0.1c-5.8-0.3-11.7-0.6-17.5-0.6c-10.1-0.1-21,0-32,2.3
	c-10.9,2.3-20.4,5.8-28.7,10.6l-0.1,0.1l-0.9,0.4C196.1,175.6,195.6,175.8,195,175.8z M315,105.9c-0.9,0-1.9,0.3-2.8,0.7
	c-5.1,2.9-7.8,9-9.3,14.3c3.6-0.9,7.1-2,10.1-3.8c2.5-1.4,5.4-4.1,5.6-7.1c0.1-1.6-0.3-2.8-1.4-3.5
	C316.7,106.1,315.8,105.9,315,105.9z"/>
</svg>
