<svg id="Layer_1" data-name="Layer 1" xmlns="http://www.w3.org/2000/svg" viewBox="0 0 142.03 53.47"><defs><style>.cls-1{fill:none;stroke:#ffc843;stroke-linecap:round;stroke-linejoin:round;stroke-width:3px;}</style></defs><title>logo</title><path class="cls-1" d="M36.5,47.5c-1.8-.9-2.7-3.1-1.4-4.7a5.82,5.82,0,0,1,3.4-1.7A10.37,10.37,0,0,0,45,37.3c.1-.1.2-.2.3-.1a.76.76,0,0,1,.2.4,7.32,7.32,0,0,1-.8,2.5c-2.4,6.2-4.8,12.4-7.3,18.6-1.8,4.6-3.3,9.9-6.7,13.6-6,6.4-17.9,1.9-18-6.8a7.51,7.51,0,0,1,7-8c3.1-.3,6.1,1.2,6,4.6-.1,2.7-3.3,5.1-5.9,3.8" transform="translate(-11.2 -32.7)"/><path class="cls-1" d="M109.8,51.4c-1.6,3.6-2.9,7.2-4.3,10.9-.8,2.1-2.1,5.3-.6,7.4a3.06,3.06,0,0,0,4.8.1,27.48,27.48,0,0,0,5-9.4c1.9-5.1,3.5-10.4,5-15.8" transform="translate(-11.2 -32.7)"/><path class="cls-1" d="M108.6,54.1c-1.6-1.5-3.8-2.9-6-1.9-5,2.2-7.8,9.6-7.2,14.8.3,1.7,1.3,4.1,3.3,4.5,2.4.4,4.6-2.5,5.6-4.3" transform="translate(-11.2 -32.7)"/><path class="cls-1" d="M112.3,67.6c.8,3,4.1,4.3,6.4,2.4,1.9-1.6,3.1-4.2,4.1-6.5,2.4-5.5,3.8-11.4,5.2-17.1.2-.6.3-1.3.5-1.9" transform="translate(-11.2 -32.7)"/><path class="cls-1" d="M121.3,67c.3,2.2,1.7,4.7,4.2,3.1a12.36,12.36,0,0,0,4-5c.6-1.3.9-2.8,2.1-3.5a7.61,7.61,0,0,1,2.1-.8c3-.7,6.6-1.8,8.2-4.5,1-1.7.6-4.1-1.4-4.7-5.8-1.8-9.5,7.5-10.4,11.6a11,11,0,0,0-.3,3.6,4.52,4.52,0,0,0,3.3,3.6c6,1.6,9.5-7.5,14.3-9.3a3.29,3.29,0,0,1,2.9.1,3.42,3.42,0,0,1,1.4,2.6c.6,7.7-8.7,11.6-14.9,12.8-9.7,2.1-18.7-.9-28.4-1a45,45,0,0,0-23.7,6.8" transform="translate(-11.2 -32.7)"/><path class="cls-1" d="M72.9,53.9c-1.6,4.8-4,9.5-5.1,14.4-.3,1.4-.7,4.2,1.3,4.6,1.4.3,3.3-.8,4.2-1.8a16.18,16.18,0,0,0,3.6-7.3" transform="translate(-11.2 -32.7)"/><path class="cls-1" d="M71.4,58c-1.4-2.4-3.4-4.6-6.3-3s-4.6,4.9-5.5,7.9c-.8,2.6-2.1,7.6.2,9.8,3.6,3.3,7.2-3,8.4-5.5" transform="translate(-11.2 -32.7)"/><path class="cls-1" d="M40.9,65.1a40.8,40.8,0,0,1,4.6-8.5c1.3-1.7,3.5-3.5,5.8-3.1,4.2.8,3.2,7.4,2.1,10.1-.8,2-1.6,4.3-3.7,5.4-1.6.8-5,1-5.3-1.4a3.2,3.2,0,0,1,4.3-3.3A4.68,4.68,0,0,1,51,66.6c1.6,3.1,1,6.8-.1,10a4.87,4.87,0,0,1-.3.7,12.09,12.09,0,0,1-4,5.5c-1.6,1.2-4,2.3-6,1.7-2.8-.8-3.1-4.4-1.3-6.3s4.3-2.1,6.7-2.1a12.41,12.41,0,0,0,6.7-1.7,19.14,19.14,0,0,0,5.1-5.5,4.7,4.7,0,0,0,.6-.9" transform="translate(-11.2 -32.7)"/><path class="cls-1" d="M75,42.8c3.9-.3,8.3-1.9,10.9-5a3.29,3.29,0,0,0,.7-1.3c.2-1.5-1.6-2.3-2.8-2.3a5.22,5.22,0,0,0-4.1,2.7,9.43,9.43,0,0,0-1.1,5.2c.1,1.3.4,2.8,1.5,3.4,3.1,1.6,6.7-1.9,8.2-4.3.4-.6,1-2,1.8-2-.1,0-1.8,5.7-1.9,6.3Q85.8,52.4,84,59.3a87.56,87.56,0,0,0-2.4,12.4,8.78,8.78,0,0,0-.1,2.8c0,.2.1.4.3.4s.2-.1.3-.3c1.1-1.7,1.9-3.5,2.9-5.3,0,0,3-5.7,5.7-10.4s4.6-7.7,5.2-8.6a60.23,60.23,0,0,1,6.5-8.2,14.38,14.38,0,0,1,4.3-3.3,15.88,15.88,0,0,1,5.7-1.1c2.1-.1,2.3.3,6.4.5,2.3.2,3.8.2,5.4.2,4.2,0,5-.3,5.5-.5a7.53,7.53,0,0,0,3.5-3.5" transform="translate(-11.2 -32.7)"/></svg>