<?xml version="1.0" encoding="utf-8"?>
<!-- Generator: Adobe Illustrator 21.1.0, SVG Export Plug-In . SVG Version: 6.00 Build 0)  -->
<svg version="1.1" id="Layer_1" xmlns="http://www.w3.org/2000/svg" xmlns:xlink="http://www.w3.org/1999/xlink" x="0px" y="0px"
	 viewBox="0 0 660 282" style="enable-background:new 0 0 660 282;" xml:space="preserve">
<style type="text/css">
	.st0{fill:#FFFFFF;}
	.st1{fill:none;}
	.st2{font-family:'MuseoSansRounded-300';}
	.st3{font-size:16.8744px;}
	.st4{fill:none;stroke:#FFFFFF;stroke-width:8;stroke-linecap:round;stroke-linejoin:round;stroke-miterlimit:10;}
</style>
<path class="st0" d="M233.8,268.1c0,5.6-4,8.4-10.7,8.4h-8.3v-30.7h6.7c6.8,0,10.8,2.5,10.8,7.6c0,4-2.3,6.2-5.6,6.8
	C230.5,260.6,233.8,262.8,233.8,268.1z M216.9,259.5h6.7c3.9,0,6.5-2.2,6.5-5.9c0-4.2-3-5.9-8.4-5.9h-4.8V259.5z M231.6,268.1
	c0-4.8-3.3-6.8-7.6-6.8h-7v13.4h6.2C228.3,274.7,231.6,272.7,231.6,268.1L231.6,268.1z M265.8,261.3c0,10-4.8,15.8-12.4,15.8
	c-7.3,0-12.3-5.6-12.3-15.7s5.1-15.9,12.3-15.9C260.8,245.4,265.8,250.9,265.8,261.3L265.8,261.3z M243.4,261.3
	c0,9.3,4.1,13.8,10.1,13.8c6.3,0,10.1-4.6,10.1-13.9c0-9.5-4-14-10.1-14C247.4,247.3,243.4,251.8,243.4,261.3z M276.3,262.5v14h-2.1
	v-30.7h7.2c7.3,0,10.6,2.9,10.6,8.2c0,4.7-2.6,7-6.9,8.1l8.5,14.4H291l-8.1-14H276.3L276.3,262.5z M289.8,254.1
	c0-4.2-2.3-6.4-8.5-6.4h-5v13h5.4C286.9,260.7,289.8,258.7,289.8,254.1z M321.8,260.9c0,12.8-7.4,15.6-13.6,15.6H302v-30.7h6
	C314.8,245.9,321.8,248.3,321.8,260.9L321.8,260.9z M304.1,274.7h4.3c5.5,0,11.2-2.5,11.2-13.8c0-11.5-6-13.2-11.5-13.2h-4V274.7z
	 M332.2,247.7v11.9h11.1v1.8h-11.1v13.2h13.4v1.8h-15.5v-30.7h15.2l-0.3,1.8h-12.8L332.2,247.7z M368.9,274.6l-0.3,2h-14.7v-30.7
	h2.1v28.7H368.9z M377.7,247.7v11.9h11.1v1.8h-11.1v13.2h13.4v1.8h-15.5v-30.7h15.2l-0.3,1.8h-12.8L377.7,247.7z M402,267.9
	l-2.8,8.6H397l10.4-30.7h2.7l10.4,30.7h-2.3l-2.8-8.6H402z M408.7,247.6l-6.1,18.4h12.1L408.7,247.6L408.7,247.6z M435.3,277
	c-6.8,0-9.8-4.2-9.8-10v-21.2h2.1v21c0,5,2.3,8.2,7.7,8.2s7.7-3.3,7.7-8.2v-21h2.2V267C445.2,272.9,442,277,435.3,277L435.3,277z"/>
<rect x="313.3" y="196" class="st1" width="285" height="32.7"/>
<text transform="matrix(1 0 0 1 313.267 207.8352)" class="st0 st2 st3">GRAPHIC DESIGNER</text>
<path class="st4" d="M157.2,66.7c-6.1-3.2-9.1-10.5-4.9-15.8c2.5-3.4,7.2-4.9,11.4-5.7c9.9-2.1,15.2-5.5,21.7-12.7
	c0.2-0.2,0.6-0.6,1.1-0.4c0.4,0.2,0.6,0.8,0.6,1.3c-0.4,3-1.3,5.7-2.5,8.4c-8.2,20.9-16.2,41.8-24.5,62.6
	c-6.1,15.6-11,33.1-22.6,45.8c-20.2,21.5-60.1,6.5-60.3-23c-0.2-14.1,9.1-25.7,23.6-27c10.3-0.8,20.5,4,20,15.4
	c-0.4,9.1-11.2,17.1-19.8,12.7"/>
<path class="st4" d="M403.5,79.6c-5.3,12-9.7,24.3-14.6,36.5c-2.7,7-7,17.9-2.1,24.9c4,5.7,11.6,5.1,16,0.4
	c8.2-9.1,12.7-20,16.7-31.4c6.3-17.3,11.8-35,16.7-52.9"/>
<path class="st4" d="M399.3,88.8c-5.5-5.1-12.7-9.7-20.2-6.5c-16.7,7.4-26.4,32.3-24,49.6c0.8,5.7,4.4,13.7,11,15
	c8.2,1.5,15.6-8.4,18.8-14.6"/>
<path class="st4" d="M411.8,134.2c2.5,9.9,13.7,14.6,21.5,8.2c6.5-5.5,10.5-14.1,13.9-21.9c8-18.6,12.7-38.2,17.5-57.6
	c0.6-2.1,1.1-4.2,1.7-6.3"/>
<path class="st4" d="M442.1,132.1c1.1,7.4,5.7,15.8,14.1,10.3c5.7-3.8,10.5-10.3,13.3-16.7c1.9-4.2,3-9.5,7.2-11.8
	c2.1-1.3,4.6-1.9,7-2.5c9.9-2.3,22.1-5.9,27.6-15.2c3.4-5.7,1.9-13.7-4.9-15.8c-19.4-5.9-32.1,25.1-35,39c-0.8,4-1.5,8-0.8,12
	c1.1,6.1,5.3,10.5,11.2,12c20.2,5.5,31.9-25.1,48.1-31.2c3.2-1.3,6.7-1.3,9.7,0.4c3,1.9,4.4,5.3,4.6,8.6c1.9,25.7-29.3,38.8-50,43
	c-32.5,7-62.9-3.2-95.3-3.4c-28.1,0-55.9,8-79.7,22.8"/>
<path class="st4" d="M279.5,88c-5.5,16-13.3,31.9-17.1,48.5c-1.1,4.9-2.3,14.1,4.2,15.6c4.9,1.1,11-2.5,14.1-5.9
	c6.3-6.7,9.9-16,12.2-24.7"/>
<path class="st4" d="M274.4,101.7c-4.9-8-11.4-15.4-21.3-10.1c-9.7,5.3-15.6,16.5-18.6,26.6c-2.7,8.9-7.2,25.5,0.6,32.9
	c12,11.2,24.3-9.9,28.3-18.6"/>
<path class="st4" d="M172.1,125.8c4.2-9.9,9.1-20,15.4-28.7c4.4-5.7,11.6-11.6,19.4-10.3c14.1,2.5,10.8,24.9,7,34
	c-2.7,6.7-5.5,14.6-12.4,18.1c-5.5,2.7-16.7,3.4-17.7-4.9c-0.8-7.8,7.4-14.1,14.6-11.2c3.4,1.5,5.9,4.2,7.6,7.6
	c5.3,10.3,3.4,22.8-0.2,33.5c-0.2,0.8-0.6,1.7-0.8,2.3c-2.7,7.2-7.2,13.7-13.5,18.4c-5.3,4-13.3,7.8-20.2,5.7
	c-9.3-2.7-10.3-14.8-4.4-21.3c5.7-6.5,14.3-7.2,22.4-7.2c7.8,0,15.6-1.5,22.4-5.7c7-4.6,12.4-11.4,17.1-18.4
	c0.8-1.1,1.5-2.1,2.1-3.2"/>
<path class="st4" d="M286.7,50.9c13.1-0.8,27.8-6.3,36.7-16.7c1.1-1.3,2.1-2.7,2.3-4.4c0.6-5.1-5.3-7.8-9.5-7.6
	c-5.9,0.2-11,4.2-13.9,9.1c-3.2,5.3-4,11.4-3.8,17.5c0.2,4.4,1.3,9.3,5.1,11.4c10.3,5.5,22.6-6.5,27.6-14.3c1.3-1.9,3.4-6.7,5.9-6.7
	c-0.4,0-5.9,19.2-6.5,21.1c-5.3,15.4-10.1,30.8-14.1,46.4c-3.6,13.7-6.3,27.6-8.2,41.6c-0.4,3.2-0.8,6.3-0.2,9.5
	c0,0.6,0.4,1.3,1.1,1.3c0.4,0,0.6-0.4,0.8-0.8c3.6-5.7,6.5-11.8,9.7-17.9c0,0,10.1-19,19.2-35c8.9-15.8,15.6-25.7,17.5-28.9
	c5.3-7.8,11.8-17.3,21.7-27.4c6.3-6.3,9.9-9.1,14.3-11c7.2-3.2,13.5-3.4,19.2-3.6c7.2-0.2,7.8,0.8,21.5,1.7
	c7.8,0.6,12.9,0.6,18.1,0.6c14.1,0,16.9-1.1,18.6-1.7c3.2-1.5,7.8-4.4,11.8-11.6"/>
</svg>
