<svg id="Layer_1" data-name="Layer 1" xmlns="http://www.w3.org/2000/svg" viewBox="0 0 792 612"><defs><style>.cls-1{fill:none;stroke:#f69166;stroke-linecap:round;stroke-linejoin:round;stroke-width:6px;}</style></defs><title>Work</title><path class="cls-1" d="M214.45,256.07c6.25-7.2,15.91-11.27,25.44-9.82,8.7,1.33,16.45,7.85,20.49,15.49A22.36,22.36,0,0,1,262,280c-3,8-8,4.79-10.88-1-9.88-20.4,6.46-54.43,23.69-66.75,16.43-11.75,30.42,4,27.63,20.66-5.89,35.21-16.1,70.6-24.8,105.24-7.59,30.22-11.33,45.34-9,46.26,2.2.85,8.6-10.51,16.42-24.37,6.15-10.91,9.51-18.12,15.42-29.85,7.52-14.91,8.69-16.34,15.92-30.34,18.72-36.24,26-55.89,27.86-55.22.93.34-.45,5.44-6,30.84-5.46,25.11-4.79,23.29-7,32.33-5.45,22.68-12.56,44.95-17.16,67.84a34.54,34.54,0,0,0-1,8.77c.17,3,3-1.06,3.56-1.83,1.43-1.9,2.73-3.91,4-5.91,2-3.15,4-6.34,5.84-9.61,22.24-40.12,42.24-82.13,67.09-121,8.61-13.46,18-26.9,30.85-36.7,15-11.46,34.26-15,52.74-14.34,19.29.66,39.28,4.88,55.5,15.75"/><path class="cls-1" d="M380.14,303.93a17.54,17.54,0,0,0-2.87,1.56c-8.58,5.75-11.69,17.7-12,27.42-.17,6,.53,13.14,4.74,17.78,7,7.73,19.07,3.48,25-3.25,5.7-6.45,8.43-15.56,8.08-24.08-.25-6.2-2.27-12.58-6.84-17C392,302.28,385.54,301.62,380.14,303.93Z"/><path class="cls-1" d="M366.14,325c3.89,5.35,8.73,10.25,15.64,11,7.19.76,14.17-2.82,20.12-6.45,6.4-3.91,12.78-8,19-12.17a25,25,0,0,0,5.65-4.65A9.19,9.19,0,0,0,428.9,306a4.58,4.58,0,0,0-.92-2.37,4.24,4.24,0,0,0-4.88-.94,7.19,7.19,0,0,0-3.51,3.85c-2.2,5.05-.19,12.2,4.92,14.73,6.71,3.33,19.45-1.34,24.25-6.5,2.23-2.4,3.55-6.32,1.51-8.9s-6.69-2-9.09.43-3.19,6-3.87,9.39c-2.05,10.19-4,20.43-5.13,30.76-.38,3.36-.76,7.81,3.28,9.18,2.91,1,6.38-.77,8.54-2.62,10.26-8.76,17.12-23,22-35.33C471.5,304,475,289.72,478.3,275.45c.77-3.32,1.53-6.64,2.3-10,1.35-5.81,2.79-11.61,4.46-17.34,2.59-8.9,5.69-18,11.64-25.23a16.38,16.38,0,0,1,5.12-4.46c5.91-3,9.92,1.54,9.89,7.22-.1,15.49-13.17,26.3-23.21,36.28-5.26,5.23-10.73,10.41-18.18,12.14-13.87,3.22-26-3.14-30.85-6.05"/><path class="cls-1" d="M466.27,355.43a355,355,0,0,1,5.8-55.47"/><path class="cls-1" d="M520.49,355.6c-3.15,5-8,7.51-13.19,3.69s-8.3-9.35-10.62-15.1c-1.16-2.88-2.13-5.83-3.07-8.79-.82-2.59-1.69-6.72-5.43-5.84s-5.52,4.83-3.11,7.92a10.35,10.35,0,0,0,7,3.71c5.84.68,12-2.75,16.06-6.68,5.35-5.17,8.29-12.67,5.9-20a17.59,17.59,0,0,0-18.37-12c-7,.76-11.83,5.75-15.43,11.42a91.13,91.13,0,0,0-13.94,42.88"/></svg>