<?xml version="1.0" encoding="utf-8"?>
<!-- Generator: Adobe Illustrator 21.1.0, SVG Export Plug-In . SVG Version: 6.00 Build 0)  -->
<svg version="1.1" id="Layer_1" xmlns="http://www.w3.org/2000/svg" xmlns:xlink="http://www.w3.org/1999/xlink" x="0px" y="0px"
	 viewBox="0 0 73.1 73.2" style="enable-background:new 0 0 73.1 73.2;" xml:space="preserve">
<style type="text/css">
	.st0{fill:#CCCCCC;}
	.st1{fill:#FFFFFF;}
</style>
<path class="st0" d="M30.5,36c5.4-5.2,10.6-10.2,15.7-15.1l-5.3-5.3c-7,6.8-14.1,13.8-21.2,20.8c7.1,7,14.2,14,21.2,20.9
	c1.7-1.6,3.4-3.4,5.7-5.7C41.3,46.6,36.1,41.5,30.5,36z M30.5,36c5.4-5.2,10.6-10.2,15.7-15.1l-5.3-5.3c-7,6.8-14.1,13.8-21.2,20.8
	c7.1,7,14.2,14,21.2,20.9c1.7-1.6,3.4-3.4,5.7-5.7C41.3,46.6,36.1,41.5,30.5,36z M36.9,0C16.6-0.2-0.2,16.5,0,36.5
	c0,20.2,16.1,36.4,36,36.7C56.4,73.4,72.9,56.7,73.1,37C73.3,16.8,56.8,0.2,36.9,0z M36.5,66.2C20.1,66.2,6.9,53,6.9,36.4
	c0-16.3,13.3-29.5,29.8-29.5c16.3,0,29.5,13.4,29.5,29.8C66.2,53,52.9,66.2,36.5,66.2z M46.2,20.9l-5.3-5.3
	c-7,6.8-14.1,13.8-21.2,20.8c7.1,7,14.2,14,21.2,20.9c1.7-1.6,3.4-3.4,5.7-5.7c-5.3-5-10.5-10.1-16.1-15.6
	C35.9,30.8,41.1,25.8,46.2,20.9z"/>
<path class="st1" d="M36.7,6.9C20.2,6.9,6.9,20.1,6.9,36.4c0,16.6,13.2,29.8,29.6,29.8S66.2,53,66.2,36.7C66.2,20.3,53,6.9,36.7,6.9
	z M40.9,57.3c-7-6.9-14.1-13.9-21.2-20.9c7.1-7,14.2-14,21.2-20.8l5.3,5.3c-5.1,4.9-10.3,9.9-15.7,15.1c5.6,5.5,10.8,10.6,16.1,15.6
	C44.3,53.9,42.6,55.7,40.9,57.3z"/>
</svg>
