<?xml version="1.0" encoding="utf-8"?>
<!-- Generator: Adobe Illustrator 21.1.0, SVG Export Plug-In . SVG Version: 6.00 Build 0)  -->
<svg version="1.1" id="Layer_1" xmlns="http://www.w3.org/2000/svg" xmlns:xlink="http://www.w3.org/1999/xlink" x="0px" y="0px"
	 viewBox="0 0 73.2 73.1" style="enable-background:new 0 0 73.2 73.1;" xml:space="preserve">
<style type="text/css">
	.st0{fill:#13CFB0;}
	.st1{fill:#FFFFFF;}
</style>
<path class="st0" d="M37,0C16.8-0.2,0.2,16.3,0,36.2c-0.2,20.3,16.5,37.1,36.5,36.9c20.2,0,36.4-16.1,36.7-36
	C73.4,16.7,56.7,0.2,37,0z M36.4,53.4c-7-7.1-14-14.2-20.8-21.2l5.3-5.3C25.8,32,30.8,37.2,36,42.6c5.5-5.6,10.6-10.8,15.6-16.1
	c2.3,2.3,4.1,4,5.7,5.7C50.4,39.2,43.4,46.3,36.4,53.4z"/>
<path class="st1" d="M36,42.6c5.5-5.6,10.6-10.8,15.6-16.1c2.3,2.3,4.1,4,5.7,5.7c-6.9,7-13.9,14.1-20.9,21.2
	c-7-7.1-14-14.2-20.8-21.2l5.3-5.3"/>
</svg>
