<svg id="Layer_1" data-name="Layer 1" xmlns="http://www.w3.org/2000/svg" viewBox="0 0 66.24 66.24"><defs><style>.cls-1{fill:#fff;}</style></defs><title>email-teal</title><path class="cls-1" d="M66.24,13V47.52a3.21,3.21,0,0,0-.08.32,7,7,0,0,1-7,5.91l-52,0A7,7,0,0,1,.26,48.36c-.07-.28-.13-.57-.19-.85q0-17,0-33.91a1.21,1.21,0,0,0,.06-.19A6.87,6.87,0,0,1,4.82,7.78a15.1,15.1,0,0,1,1.59-.4H60a1.67,1.67,0,0,0,.22.07,6.89,6.89,0,0,1,5.38,3.76A14.62,14.62,0,0,1,66.24,13ZM7.08,11.05l.26.27,25,24.45a1.23,1.23,0,0,0,2,0l5.19-5.09,19.7-19.32.29-.3Zm3.54,39.19H55.53L40,35c-.07.09-.15.19-.24.28l-5.46,5.36c-.78.77-1.34.77-2.11,0L26.57,35a2,2,0,0,1-.21-.3ZM62.7,12.83l-20,19.73,0,0,17.6,17.31a.35.35,0,0,0,.42.08,2.68,2.68,0,0,0,1.65-1.58,5.64,5.64,0,0,0,.31-2.13q0-16.51,0-33ZM4,13v.33Q4,30.25,4,47.16a5.55,5.55,0,0,0,.12,1.11A2.23,2.23,0,0,0,5.35,49.9.45.45,0,0,0,6,49.81q8.74-8.6,17.5-17.17a1.48,1.48,0,0,1,.29-.19Z"/></svg>