<svg id="Layer_1" data-name="Layer 1" xmlns="http://www.w3.org/2000/svg" viewBox="0 0 66.6 66.6"><defs><style>.cls-1{fill:#fff;}</style></defs><title>instagram-teal</title><path class="cls-1" d="M8.5,0H58a8.49,8.49,0,0,1,8.5,8.5V58A8.49,8.49,0,0,1,58,66.5H8.5A8.43,8.43,0,0,1,0,58V8.5A8.49,8.49,0,0,1,8.5,0Zm40,7.4a3,3,0,0,0-3,3v7.2a3,3,0,0,0,3,3H56a3,3,0,0,0,3-3V10.4a3,3,0,0,0-3-3ZM59.1,28.2H53.2a17.91,17.91,0,0,1,.9,5.7C54.1,45,44.8,54,33.4,54S12.7,45,12.7,33.9a17.91,17.91,0,0,1,.9-5.7H7.4V56.3A2.58,2.58,0,0,0,10,58.9H56.4A2.58,2.58,0,0,0,59,56.3V28.2Zm-25.7-8A13.19,13.19,0,0,0,20,33.2a13.19,13.19,0,0,0,13.4,13,13.19,13.19,0,0,0,13.4-13A13.32,13.32,0,0,0,33.4,20.2Z"/></svg>