<?xml version="1.0" encoding="utf-8"?>
<!-- Generator: Adobe Illustrator 21.1.0, SVG Export Plug-In . SVG Version: 6.00 Build 0)  -->
<svg version="1.1" id="Layer_1" xmlns="http://www.w3.org/2000/svg" xmlns:xlink="http://www.w3.org/1999/xlink" x="0px" y="0px"
	 viewBox="0 0 66.6 66.6" style="enable-background:new 0 0 66.6 66.6;" xml:space="preserve">
<style type="text/css">
	.st0{fill:#F44A52;}
</style>
<path class="st0" d="M8.5,0H58c4.7,0,8.5,3.8,8.5,8.5V58c0,4.7-3.8,8.5-8.5,8.5H8.5C3.8,66.6,0,62.7,0,58V8.5C0,3.8,3.8,0,8.5,0z
	 M48.5,7.4c-1.7,0-3,1.4-3,3v7.2c0,1.7,1.3,3,3,3H56c1.6,0,3-1.3,3-3v-7.2c0-1.7-1.3-3-3-3C56,7.4,48.5,7.4,48.5,7.4z M59.1,28.2
	h-5.9c0.6,1.8,0.9,3.7,0.9,5.7C54.1,45,44.8,54,33.4,54s-20.7-9-20.7-20.1c0-2,0.3-3.9,0.9-5.7H7.4v28.1c0,1.5,1.2,2.6,2.6,2.6h46.4
	c1.5,0,2.6-1.2,2.6-2.6L59.1,28.2L59.1,28.2z M33.4,20.2C26,20.2,20,26,20,33.2s6,13,13.4,13s13.4-5.8,13.4-13
	C46.7,26,40.7,20.2,33.4,20.2z"/>
</svg>
