<svg id="Layer_1" data-name="Layer 1" xmlns="http://www.w3.org/2000/svg" width="67in" height="67in" viewBox="0 0 4824 4824"><title>instagram-teal</title><path d="M468.3,3864q0-1524.3,0-3048.7c1.8-6.8,4.2-13.5,5.3-20.4,23.9-157.8,102.9-276.9,249-345.6,44.8-21.1,94.2-32.5,141.5-48.3H3943.6c5.8,1.9,11.4,4.6,17.3,5.7,137.9,25.6,247.3,94.9,315.3,218.5,28.2,51.2,42.5,110.1,63.2,165.4v3092c-2.1,5.6-4.9,11-6.1,16.7-28.9,138.7-99.3,249-226,316.1-47.2,25-100.7,38.2-151.3,56.7H857.9c-6.8-2.1-13.5-4.6-20.5-6.1-136.7-29.5-245.7-100.5-310.8-225.3C498.3,3986.4,487.2,3923.1,468.3,3864ZM914.4,2041.4c0,16.7,0,30.9,0,45q0,780.7.2,1561.3c0,19.5.8,39.4,4.8,58.3,12.6,59.8,49.1,99.1,108.5,114,22.6,5.7,46.9,6.6,70.4,6.6q1301.6.5,2603.2.2c15.5,0,31.1.9,46.3-1.4,19.2-2.9,38.9-6.2,56.6-13.7,71.1-30.2,90-90.5,90-161.2q-.2-789.9-.1-1579.9c0-9.8,0-19.6,0-28.8H3557.5c86.7,370,23.7,710.4-203.7,1011.3s-538,460.8-916.3,473.4c-339,11.3-635.7-104.9-872.6-346.1-312.1-317.7-411.6-702.2-314.7-1138.9Zm2234,298.6c1.9-406.2-325.5-743-738.8-747.5-406.2-4.4-740.4,322.3-749.3,736.7-8.7,407.8,323.3,746.7,740.2,751.5C2805,3085.3,3146.3,2759,3148.4,2340Zm2.2-1119.6h.5c0,77.2-1.8,154.5.5,231.7s53.9,130.2,131.3,137.3c33.7,3.1,67.9,3,101.8,2.9,123.6-.4,247.3,1.6,370.7-3.2,83.5-3.2,137.5-63.7,138.4-148.2q2.3-220.9,0-441.9c-.8-84.7-60.3-149-144.9-150.7q-228.6-4.5-457.3.2c-82.5,1.7-138.5,63-140.6,146.3C3149.1,1069.9,3150.6,1145.2,3150.6,1220.4Z" fill="#008e8a"/><path d="M864.1,401c-47.3,15.8-96.7,27.3-141.5,48.3C576.4,517.9,497.4,637,473.6,794.9c-1,6.9-3.5,13.6-5.3,20.4V401Z" fill="#fff"/><path d="M468.3,3864c18.9,59.2,30.1,122.4,58.4,176.7,65.1,124.8,174.1,195.8,310.8,225.3,6.9,1.5,13.6,4.1,20.5,6.1H468.3Q468.3,4068,468.3,3864Z" fill="#fff"/><path d="M4339.4,790.6c-20.6-55.4-35-114.2-63.2-165.4-68-123.6-177.4-192.8-315.3-218.5-5.9-1.1-11.5-3.8-17.3-5.7h395.8Z" fill="#fff"/><path d="M3956,4272.1c50.6-18.6,104.1-31.7,151.3-56.7,126.7-67.2,197.2-177.5,226-316.1,1.2-5.8,4-11.2,6.1-16.7v389.6Z" fill="#fff"/></svg>