<svg id="Layer_1" data-name="Layer 1" xmlns="http://www.w3.org/2000/svg" viewBox="0 0 66.24 66.24"><defs><style>.cls-1{fill:#fff;}</style></defs><title>linkedin-teal</title><path class="cls-1" d="M57.72,57.7H47.83V56.58q0-8.16,0-16.32a15.63,15.63,0,0,0-.13-2.12c-.42-3-1.69-4.29-4.7-4.52a15.4,15.4,0,0,0-3.56.19c-1.73.27-2.69,1.45-3,3.45a18.3,18.3,0,0,0-.17,2.45c0,5.51,0,11,0,16.54,0,.44,0,.87,0,1.43H26V23.88h9.8V29.2c.94-.79,1.65-1.43,2.4-2,4.25-3.32,9-3.79,13.93-2,3.81,1.36,5.62,4.41,5.69,8.29.13,8,0,15.95,0,23.92C57.87,57.44,57.81,57.5,57.72,57.7Z"/><path class="cls-1" d="M7,23.84H17.15V57.67H7Z"/><path class="cls-1" d="M12.17,18.79a5.67,5.67,0,1,1,5.7-5.65A5.69,5.69,0,0,1,12.17,18.79Z"/></svg>