<svg id="Layer_1" data-name="Layer 1" xmlns="http://www.w3.org/2000/svg" viewBox="0 0 66.24 66.24"><defs><style>.cls-1{fill:#fff;}</style></defs><title>linkedin-teal</title><path class="cls-1" d="M66,66.24H53.26V64.76q0-10.76,0-21.51a21.07,21.07,0,0,0-.17-2.79c-.54-4-2.18-5.65-6.06-6a19.42,19.42,0,0,0-4.58.25c-2.23.36-3.47,1.91-3.82,4.54a24.65,24.65,0,0,0-.22,3.23c0,7.27,0,14.54,0,21.81,0,.58,0,1.15,0,1.88H25.15V21.66H37.78v7c1.21-1,2.13-1.88,3.09-2.65,5.48-4.38,11.57-5,17.95-2.67,4.91,1.79,7.25,5.81,7.33,10.93.17,10.51.06,21,.05,31.53C66.2,65.89,66.13,66,66,66.24Z"/><path class="cls-1" d="M.63,21.6H13.72V66.19H.63Z"/><path class="cls-1" d="M7.31,15a7.48,7.48,0,0,1,0-15,7.45,7.45,0,0,1,7.3,7.51A7.4,7.4,0,0,1,7.31,15Z"/></svg>