<svg id="Layer_1" data-name="Layer 1" xmlns="http://www.w3.org/2000/svg" viewBox="0 0 66.24 66.24"><defs><style>.cls-1{fill:#fff;}</style></defs><title>linkedin-teal</title><path class="cls-1" d="M64.53,66.24H52.07V64.82q0-10.28,0-20.56a19.7,19.7,0,0,0-.17-2.66c-.53-3.8-2.13-5.4-5.93-5.69a19.41,19.41,0,0,0-4.48.23c-2.18.35-3.39,1.82-3.74,4.34a23.05,23.05,0,0,0-.22,3.09c0,6.95,0,13.9,0,20.84,0,.55,0,1.1,0,1.8H24.58V23.63H36.93v6.69c1.19-1,2.08-1.8,3-2.53C45.31,23.6,51.26,23,57.5,25.24c4.8,1.71,7.08,5.55,7.16,10.45.17,10,.05,20.09.05,30.14C64.71,65.91,64.64,66,64.53,66.24Z"/><path class="cls-1" d="M.62,23.57h12.8V66.2H.62Z"/><path class="cls-1" d="M7.14,17.22a7.15,7.15,0,1,1,7.18-7.11A7.17,7.17,0,0,1,7.14,17.22Z"/></svg>