<?xml version="1.0" encoding="utf-8"?>
<!-- Generator: Adobe Illustrator 21.1.0, SVG Export Plug-In . SVG Version: 6.00 Build 0)  -->
<svg version="1.1" id="Layer_1" xmlns="http://www.w3.org/2000/svg" xmlns:xlink="http://www.w3.org/1999/xlink" x="0px" y="0px"
	 viewBox="0 0 67.4 54.8" style="enable-background:new 0 0 67.4 54.8;" xml:space="preserve">
<style type="text/css">
	.st0{fill:#F44A52;}
</style>
<path class="st0" d="M67.4,6.5c-2.5,1.1-5.1,1.8-7.9,2.2c2.9-1.7,5.1-4.4,6.1-7.6c-2.7,1.6-5.6,2.7-8.8,3.4C54.2,1.7,50.6,0,46.7,0
	C39,0,32.8,6.2,32.8,13.8c0,1.1,0.1,2.1,0.4,3.2C21.7,16.4,11.5,10.9,4.7,2.5c-1.2,2-1.9,4.4-1.9,7c0,4.8,2.4,9,6.1,11.5
	c-2.3-0.1-4.4-0.7-6.3-1.7v0.2c0,6.7,4.8,12.3,11.1,13.6c-1.2,0.3-2.4,0.5-3.6,0.5c-0.9,0-1.8-0.1-2.6-0.3c1.8,5.5,6.9,9.5,12.9,9.6
	c-4.7,3.7-10.7,5.9-17.2,5.9c-1.1,0-2.2-0.1-3.3-0.2c6.1,3.9,13.4,6.2,21.2,6.2c25.4,0,39.3-21.1,39.3-39.3v-1.8
	C63.2,11.7,65.5,9.3,67.4,6.5z"/>
</svg>
