<svg id="Layer_1" data-name="Layer 1" xmlns="http://www.w3.org/2000/svg" viewBox="0 0 66.24 66.24"><defs><style>.cls-1{fill:#fff;}</style></defs><title>twitter-teal</title><path class="cls-1" d="M63.48,6.2A14.07,14.07,0,0,1,58,13.43a23.85,23.85,0,0,0,7.14-1.89l.14.16C64.16,13,63.13,14.27,62,15.46A35.17,35.17,0,0,1,59.06,18a1,1,0,0,0-.44.9c.05,13-4.93,23.73-15.16,31.84A34.7,34.7,0,0,1,26,57.83a38.75,38.75,0,0,1-18.43-2A36.43,36.43,0,0,1,.16,52.2a27.37,27.37,0,0,0,19.63-5.52c-6.12-.53-10.2-3.59-12.47-9.34a13.83,13.83,0,0,0,5.79-.19,29.35,29.35,0,0,1-3.25-1.35,14.41,14.41,0,0,1-2.93-2.1,13.54,13.54,0,0,1-3.74-6.17,18.42,18.42,0,0,1-.52-3.6,15.46,15.46,0,0,0,5.85,1.52c-5.89-4.93-7.21-10.82-4-17.86a38.34,38.34,0,0,0,27.6,14c-.09-.82-.2-1.57-.23-2.32A13.24,13.24,0,0,1,42.47,5.5,12.89,12.89,0,0,1,54.4,8.88a1.32,1.32,0,0,0,1.4.36,27.76,27.76,0,0,0,7-2.68Z"/></svg>