<svg id="Layer_1" data-name="Layer 1" xmlns="http://www.w3.org/2000/svg" viewBox="0 0 792 612"><defs><style>.cls-1{fill:none;stroke:#eb7ea6;stroke-linecap:round;stroke-linejoin:round;stroke-width:8px;}</style></defs><title>Welcome-banner</title><path class="cls-1" d="M157.67,242.06a34,34,0,0,1,14.57-7.6c9-2.12,18.78-.67,25,6.67,4.6,5.43,10.65,22.44,3.36,27.72a6.75,6.75,0,0,1-7.79-.07c-8.74-6.56-.13-27.93,3.13-35.56,5.06-11.87,12.59-23.63,23-31.52,2.75-2.09,5.93-3.85,9.38-4,16-.59,12.49,23.38,10.86,33.09-3.16,18.74-8.66,37.47-13.26,55.87-5.52,22.1-11.27,44.15-15.94,66.45-.45,2.17-1.45,7-.39,7.46s3.58-3.34,8.24-11.78c10-18.14,18.31-37.88,26.81-57s16.77-40.36,30.74-56.17c-1.15,18.77-7.06,38.33-11.66,56.61-4.8,19.07-10,38.05-14.09,57.29-1.59,7.43-.65,14.09,5.33,5.94,3.19-4.35,5.42-9.32,8.14-13.95,15-25.42,28.11-51.87,42.28-77.73,12-21.82,23.44-45.3,41.28-63.3,20.86-21.05,47.49-28.84,76.46-22.48,16.77,3.68,32.63,10.57,48.34,17.32,14.89,6.41,25.48,12.65,45.93,18.06a155.52,155.52,0,0,0,36.12,4.32c7.73,0,15.13-.78,23.16-3.93a55.9,55.9,0,0,0,6.67-3.14"/><path class="cls-1" d="M295.52,322.13a49,49,0,0,0,9.81-3.14,52.79,52.79,0,0,0,14.92-10.21c4.44-4.26,9.76-9.62,10.89-15.93,1.77-9.81-9.23-15.07-16.79-9.87-11.81,8.12-20.72,33.38-8.24,44.25,4,3.45,8.77,3.8,10.6,3.93,12.36.88,20.9-9.61,22-11"/><path class="cls-1" d="M321.43,266.38c16.65,10.21,34.5,3.08,46.87-10.19a94.16,94.16,0,0,0,17-25.72c3-6.75,9.37-23.32,2.19-29.47-15.62-13.38-34.59,78.77-35.76,84.86-1.6,8.37-12.84,53.27,9.38,42.94,11.49-5.34,10.89-19,14.92-29.05,1.8-4.48,3.47-8.5,7.46-12.17,1.82-1.67,5.68-5.23,11.38-5.5,5.31-.25,10.52,1.8,11.14,7.75a17.46,17.46,0,0,1-2.51,10.31"/><path class="cls-1" d="M374.12,306.22c0,15.66,10.44,28.61,25.05,21.71,7.44-3.51,11.35-10.12,14.53-16,5.05-9.4,8-24.67,18.58-29.77,5.82-2.8,12.91.23,16.35,5.37,4.31,6.43,4,15.57,2.39,22.81-.27,1.23-.59,2.44-1,3.64-1.94,5.89-5.75,11.37-11.26,14.22s-12.8,2.56-17.43-1.57-5.69-10.68-4.82-16.63a6,6,0,0,1,1.6-3.78c1.38-1.22,3.44-1.08,5.28-1a50.89,50.89,0,0,0,28.09-6.8c6.34-3.65,11-8.82,16.15-14,5-5,6.78-.27,5.88,4.73-.84,4.69-3.46,8.89-4.31,13.57a85.91,85.91,0,0,0-.52,24.22,4.77,4.77,0,0,1-.26,2.79,1.61,1.61,0,0,1-2.37.62,2.23,2.23,0,0,1-.49-1.46c-1.12-15,4.39-49.43,25.4-47.12a13,13,0,0,1,8.95,5.36c7.42,10.29,3.76,32-4.69,41a2.09,2.09,0,0,1-1,.68c-.8.19-1.53-.51-1.93-1.23a10.87,10.87,0,0,1-.86-5.89c.68-12.79,3.43-28.21,14.73-36,5.18-3.58,12.1-6.62,17.55-1.73,12.09,10.85.07,29.05-.2,41.82-.23,10.81,12.22,3.24,16.77.58,7.79-4.55,15.59-9.25,22.48-15.13,6.18-5.28,15.06-13.87,14.24-22.86a7.44,7.44,0,0,0-1.28-3.68,8,8,0,0,0-6.53-2.9c-19.3,0-33.59,31.63-18.62,45,5.09,4.56,12.77,4.67,18.54,1.38,5.27-3,9.09-8.14,12.08-13.3"/><path class="cls-1" d="M274.11,374.15a75.24,75.24,0,0,1,22.57-18.71c3.33-1.79,16.22-8.35,44.58-8.81,8.72-.14,29.24.13,57.79,7.71,26.92,7.14,27.26,11.83,55,18.71,15.44,3.83,29.2,7.13,47.89,6.6a138.07,138.07,0,0,0,46.78-9.36,128.12,128.12,0,0,0,37.43-23.12,124.91,124.91,0,0,0,17.06-18.71"/></svg>