<?xml version="1.0" encoding="utf-8"?>
<!-- Generator: Adobe Illustrator 21.1.0, SVG Export Plug-In . SVG Version: 6.00 Build 0)  -->
<svg version="1.1" id="Layer_1" xmlns="http://www.w3.org/2000/svg" xmlns:xlink="http://www.w3.org/1999/xlink" x="0px" y="0px"
	 viewBox="0 0 435 105.3" style="enable-background:new 0 0 435 105.3;" xml:space="preserve">
<style type="text/css">
	.st0{fill:none;}
	.st1{fill:#231F20;}
	.st2{font-family:'MuseoSansRounded-300';}
	.st3{font-size:10px;}
	.st4{fill:none;stroke:#EB80A7;stroke-width:5;stroke-linecap:round;stroke-linejoin:round;stroke-miterlimit:10;}
</style>
<title>wordmark</title>
<rect x="206.9" y="91.1" class="st0" width="135.1" height="15.5"/>
<text transform="matrix(1 0 0 1 206.9083 98.1202)" class="st1 st2 st3">GRAPHIC DESIGNER</text>
<path class="st4" d="M133.9,29.8c-2.9-1.5-4.3-5-2.3-7.5c1.2-1.6,3.4-2.3,5.4-2.7c4.7-1,7.2-2.6,10.3-6c0.1-0.1,0.3-0.3,0.5-0.2
	c0.2,0.1,0.3,0.4,0.3,0.6c-0.2,1.4-0.6,2.7-1.2,4c-3.9,9.9-7.7,19.8-11.6,29.7c-2.9,7.4-5.2,15.7-10.7,21.7
	C115,79.6,96.1,72.5,96,58.5c-0.1-6.7,4.3-12.2,11.2-12.8c4.9-0.4,9.7,1.9,9.5,7.3c-0.2,4.3-5.3,8.1-9.4,6"/>
<path class="st4" d="M250.7,35.9c-2.5,5.7-4.6,11.5-6.9,17.3c-1.3,3.3-3.3,8.5-1,11.8c1.9,2.7,5.5,2.4,7.6,0.2
	c3.9-4.3,6-9.5,7.9-14.9c3-8.2,5.6-16.6,7.9-25.1"/>
<path class="st4" d="M248.7,40.3c-2.6-2.4-6-4.6-9.6-3.1c-7.9,3.5-12.5,15.3-11.4,23.5c0.4,2.7,2.1,6.5,5.2,7.1
	c3.9,0.7,7.4-4,8.9-6.9"/>
<path class="st4" d="M254.6,61.8c1.2,4.7,6.5,6.9,10.2,3.9c3.1-2.6,5-6.7,6.6-10.4c3.8-8.8,6-18.1,8.3-27.3c0.3-1,0.5-2,0.8-3"/>
<path class="st4" d="M269,60.8c0.5,3.5,2.7,7.5,6.7,4.9c2.7-1.8,5-4.9,6.3-7.9c0.9-2,1.4-4.5,3.4-5.6c1-0.6,2.2-0.9,3.3-1.2
	c4.7-1.1,10.5-2.8,13.1-7.2c1.6-2.7,0.9-6.5-2.3-7.5c-9.2-2.8-15.2,11.9-16.6,18.5c-0.4,1.9-0.7,3.8-0.4,5.7c0.5,2.9,2.5,5,5.3,5.7
	c9.6,2.6,15.1-11.9,22.8-14.8c1.5-0.6,3.2-0.6,4.6,0.2c1.4,0.9,2.1,2.5,2.2,4.1c0.9,12.2-13.9,18.4-23.7,20.4
	c-15.4,3.3-29.8-1.5-45.2-1.6c-13.3,0-26.5,3.8-37.8,10.8"/>
<path class="st4" d="M191.9,39.9c-2.6,7.6-6.3,15.1-8.1,23c-0.5,2.3-1.1,6.7,2,7.4c2.3,0.5,5.2-1.2,6.7-2.8c3-3.2,4.7-7.6,5.8-11.7"
	/>
<path class="st4" d="M189.5,46.4c-2.3-3.8-5.4-7.3-10.1-4.8c-4.6,2.5-7.4,7.8-8.8,12.6c-1.3,4.2-3.4,12.1,0.3,15.6
	c5.7,5.3,11.5-4.7,13.4-8.8"/>
<path class="st4" d="M141,57.8c2-4.7,4.3-9.5,7.3-13.6c2.1-2.7,5.5-5.5,9.2-4.9c6.7,1.2,5.1,11.8,3.3,16.1c-1.3,3.2-2.6,6.9-5.9,8.6
	c-2.6,1.3-7.9,1.6-8.4-2.3c-0.4-3.7,3.5-6.7,6.9-5.3c1.6,0.7,2.8,2,3.6,3.6c2.5,4.9,1.6,10.8-0.1,15.9c-0.1,0.4-0.3,0.8-0.4,1.1
	c-1.3,3.4-3.4,6.5-6.4,8.7c-2.5,1.9-6.3,3.7-9.6,2.7c-4.4-1.3-4.9-7-2.1-10.1c2.7-3.1,6.8-3.4,10.6-3.4c3.7,0,7.4-0.7,10.6-2.7
	c3.3-2.2,5.9-5.4,8.1-8.7c0.4-0.5,0.7-1,1-1.5"/>
<path class="st4" d="M195.3,22.3c6.2-0.4,13.2-3,17.4-7.9c0.5-0.6,1-1.3,1.1-2.1c0.3-2.4-2.5-3.7-4.5-3.6c-2.8,0.1-5.2,2-6.6,4.3
	c-1.5,2.5-1.9,5.4-1.8,8.3c0.1,2.1,0.6,4.4,2.4,5.4c4.9,2.6,10.7-3.1,13.1-6.8c0.6-0.9,1.6-3.2,2.8-3.2c-0.2,0-2.8,9.1-3.1,10
	c-2.5,7.3-4.8,14.6-6.7,22c-1.7,6.5-3,13.1-3.9,19.7c-0.2,1.5-0.4,3-0.1,4.5c0,0.3,0.2,0.6,0.5,0.6c0.2,0,0.3-0.2,0.4-0.4
	c1.7-2.7,3.1-5.6,4.6-8.5c0,0,4.8-9,9.1-16.6c4.2-7.5,7.4-12.2,8.3-13.7c2.5-3.7,5.6-8.2,10.3-13c3-3,4.7-4.3,6.8-5.2
	c3.4-1.5,6.4-1.6,9.1-1.7c3.4-0.1,3.7,0.4,10.2,0.8c3.7,0.3,6.1,0.3,8.6,0.3c6.7,0,8-0.5,8.8-0.8c1.5-0.7,3.7-2.1,5.6-5.5"/>
</svg>
