<?xml version="1.0" encoding="utf-8"?>
<!-- Generator: Adobe Illustrator 20.0.0, SVG Export Plug-In . SVG Version: 6.00 Build 0)  -->
<svg version="1.1" id="Layer_1" xmlns="http://www.w3.org/2000/svg" xmlns:xlink="http://www.w3.org/1999/xlink" x="0px" y="0px"
	 viewBox="0 0 62.2 76.5" style="enable-background:new 0 0 62.2 76.5;" xml:space="preserve">
<path d="M20,0c6.2,0,9.4,2.6,9.3,7.9c-0.2,8.3-2.3,6.3-2.3,6.3c-0.7-0.4-1.6-1.3-1.9-2.1V12c0-0.3,0.1-1.6,0.3-3.9
	c0-2.8-1.7-4.2-5.1-4.2h-2c-5.8,0-9.7,1.5-11.8,4.5v0.1C4.8,13.2,3.9,20,3.9,29v8.2c0,10.3,1.4,16.5,4.2,18.5
	c4.5,2,8.6,3.1,12.5,3.1c2.4,0,4.3-2,4.3-4.4V54c0-1.7-0.1-4.9-0.3-9.8c0-0.1,0-0.1,0.1-0.2c0.7-0.5,1.3-0.8,1.9-0.8
	c1.5,0,2.2,3.1,2.2,9.3v0.9c0,6-2.6,9-7.9,9h-2c-5.1,0-9.9-1.5-14.4-4.5C1.6,55.4,0,47.3,0,33.5v-0.9c0-17,1.9-26.8,5.6-29.3
	C9.4,1.1,14.2,0,20,0z M50,0.3h3c1.6,0.2,3.3,1.3,5,3.3c2.8,6,4.2,15,4.2,27c0,15.6-1.9,25.3-5.8,29c-1,0.8-1.7,1.3-2.3,1.4
	c-0.1,0-0.2,0.1-0.1,0.2c2.5,5.5,5.1,9.6,7.7,12.4c0,0,1,2.2-1.4,2.8H60c-2.1-0.3-5.4-4.9-9.8-13.7c0-0.2-0.1-0.3-0.3-0.3h-4.5
	c-8.5,0-12.8-9.2-12.8-27.6v-7.2c0-13.4,3.3-21.9,10-25.7C45.6,0.9,48,0.3,50,0.3z M36.5,27.6v10.6c0,11.5,2.5,18.2,7.5,20.1
	c0.3,0.2,0.8,0.3,1.4,0.3h3.1c0.1,0,0.2-0.1,0.2-0.2c-1.6-4.1-1.3-5.3-1.3-5.3c0.3-1.2,1.7-1.1,1.7-1.1c1.4,0,2.5,1.7,3.3,5.1
	c0,0.1,0.1,0.1,0.2,0.1c3.3-0.2,5.2-8.4,5.7-24.6V29c0-9.3-1-16.5-3-21.6c-0.6-1.5-1.9-2.6-3.5-2.9h-0.1c-1.8-0.4-3.6-0.4-5.3,0.1
	C39.8,6.6,36.5,14.2,36.5,27.6z"/>
</svg>
