<svg id="Layer_1" data-name="Layer 1" xmlns="http://www.w3.org/2000/svg" viewBox="0 0 62.2 76.4"><defs><style>.cls-1{fill:#13cfb0;}</style></defs><title>wordmark-01</title><path class="cls-1" d="M20,0c6.2,0,9.4,2.6,9.3,7.9-.2,8.3-2.3,6.3-2.3,6.3a4.84,4.84,0,0,1-1.9-2.1V12q0-.45.3-3.9,0-4.2-5.1-4.2h-2c-5.8,0-9.7,1.5-11.8,4.5v.1C4.8,13.2,3.9,20,3.9,29v8.2c0,10.3,1.4,16.5,4.2,18.5a31,31,0,0,0,12.5,3.1,4.35,4.35,0,0,0,4.3-4.4V54c0-1.7-.1-4.9-.3-9.8,0-.1,0-.1.1-.2a3.4,3.4,0,0,1,1.9-.8c1.5,0,2.2,3.1,2.2,9.3v.9c0,6-2.6,9-7.9,9h-2A25.5,25.5,0,0,1,4.5,57.9C1.6,55.4,0,47.3,0,33.5v-.9C0,15.6,1.9,5.8,5.6,3.3Q11.3,0,20,0ZM50,.3h3c1.6.2,3.3,1.3,5,3.3q4.2,9,4.2,27c0,15.6-1.9,25.3-5.8,29A6,6,0,0,1,54.1,61c-.1,0-.2.1-.1.2a46.72,46.72,0,0,0,7.7,12.4,1.93,1.93,0,0,1-1.4,2.8H60c-2.1-.3-5.4-4.9-9.8-13.7a.27.27,0,0,0-.3-.3H45.4c-8.5,0-12.8-9.2-12.8-27.6V27.6c0-13.4,3.3-21.9,10-25.7A24.74,24.74,0,0,1,50,.3ZM36.5,27.6V38.2q0,17.25,7.5,20.1a2.65,2.65,0,0,0,1.4.3h3.1a.22.22,0,0,0,.2-.2c-1.6-4.1-1.3-5.3-1.3-5.3.3-1.2,1.7-1.1,1.7-1.1q2.1,0,3.3,5.1c0,.1.1.1.2.1q4.95-.3,5.7-24.6V29q0-14-3-21.6a4.7,4.7,0,0,0-3.5-2.9h-.1a10.56,10.56,0,0,0-5.3.1C39.8,6.6,36.5,14.2,36.5,27.6Z"/></svg>