<?xml version="1.0" encoding="utf-8"?>
<!-- Generator: Adobe Illustrator 20.0.0, SVG Export Plug-In . SVG Version: 6.00 Build 0)  -->
<svg version="1.1" id="Layer_1" xmlns="http://www.w3.org/2000/svg" xmlns:xlink="http://www.w3.org/1999/xlink" x="0px" y="0px"
	 viewBox="0 0 320.9 76.5" style="enable-background:new 0 0 320.9 76.5;" xml:space="preserve">
<path d="M142.2,13.2h0.8c0.9,0,1.4,2.8,1.4,8.4v7.9c0,3.1-0.2,12.7-0.6,29c0,1.6-0.7,2.4-2.1,2.4h-0.3c-2.5,0-1.1-18.9-0.6-34.1
	l-0.5-12.2C140.6,13.7,141.2,13.2,142.2,13.2L142.2,13.2z M20,0c6.2,0,9.4,2.6,9.3,7.9c-0.2,8.3-2.3,6.3-2.3,6.3
	c-0.7-0.4-1.6-1.3-1.9-2.1V12c0-0.3,0.1-1.6,0.3-3.9c0-2.8-1.7-4.2-5.1-4.2h-2c-5.8,0-9.7,1.5-11.8,4.5v0.1C4.8,13.2,3.9,20,3.9,29
	v8.2c0,10.3,1.4,16.5,4.2,18.5c4.5,2,8.6,3.1,12.5,3.1c2.4,0,4.3-2,4.3-4.4V54c0-1.7-0.1-4.9-0.3-9.8c0-0.1,0-0.1,0.1-0.2
	c0.7-0.5,1.3-0.8,1.9-0.8c1.5,0,2.2,3.1,2.2,9.3v0.9c0,6-2.6,9-7.9,9h-2c-5.1,0-9.9-1.5-14.4-4.5C1.6,55.4,0,47.3,0,33.5v-0.9
	c0-17,1.9-26.8,5.6-29.3C9.4,1.1,14.2,0,20,0z M53.8,11.2v0.1C53.3,17.4,52.9,24,52.7,31c0.2,9.6,0.7,19.1,1.7,28.8
	c-0.4,1.1-1.1,1.7-2.2,1.7c-1.3,0-2-2.7-2.2-8.1c-0.6-6.3-0.8-12-0.8-17.1c0-0.1-0.1-0.2-0.2-0.2c-0.8,0.1-4.1,0.5-9.4,0.8
	c-0.1,0-0.2,0.1-0.2,0.2c0.2,3,0.3,5.3,0.3,6.8v7c0,2.7,0.1,6.3,0.3,10.9c0,1.1-0.7,1.7-2.2,1.9h-0.1c-0.2-0.1-0.9-0.4-1.6-1
	L36,62.6c-0.2-9.6-0.3-17.3-0.3-22.8V26.3c0-9.7,0.4-14.5,1.1-14.5c0.4,0,1.9,0.1,3,0.8c0.1,0,0.1,0.1,0.1,0.2
	c-0.4,7.2-0.5,13.9-0.6,20.1c0,0.1,0.1,0.2,0.2,0.2c1,0,6.2-0.3,9.5-0.8c0.1,0,0.1-0.1,0.1-0.2V27c0-11.2,0.7-16.8,2-16.8
	C51.4,9.9,53.4,10.5,53.8,11.2L53.8,11.2z M74.1,9.7c4.5,0,7.7,1.5,9.7,4.4c1.3,3.4,1.9,9.2,1.9,17.4c0,3.8-0.3,12.9-0.8,27.4
	c-0.4,1.1-1.1,1.6-2.2,1.6h-0.1c-1.1-0.4-1.6-1.1-1.6-1.9l0.8-19.9h-0.3c-1.7,0-14.1-0.4-15.7-0.4c-0.1,0-0.2,0.1-0.2,0.2l0.1,22.9
	v0.1c-0.1,0.5-0.8,1-1.9,1.4c-1.3,0-2-0.9-2-2.8V43.7c0-3.3-0.3-8.9-0.8-16.9c0-8.2,1.8-13.3,5.5-15.2C69.7,10.3,72.2,9.7,74.1,9.7z
	 M64.9,26.5c0,1,0.1,3.5,0.3,7.6c0,0.1,0.1,0.2,0.2,0.2c8.9,0.4,14.3,0.5,16.3,0.6c0.1,0,0.2-0.1,0.2-0.2v-7.6
	c0-8.9-1.7-12.6-5-13.3c-0.8-0.2-1.5-0.3-2.2-0.3h-0.3c-5.7,0.5-7.9,2.3-8.6,5.5C65.4,20,65.1,21.6,64.9,26.5z M97.4,8.2h2.2
	c4.8,0,7.9,2.8,9.4,8.5c0.5,2.4,0.8,4.7,0.8,6.8c0,6.7-2.4,11.3-7.2,13.9c-0.1,0-0.1,0.2-0.1,0.2c0.6,1.2,3.4,8.7,8.4,22.6v0.1
	c-0.2,0.7-0.6,1.3-1.3,1.5c-0.3,0.1-1.4,0-1.4,0c-0.7,0-2.1-3.7-4.4-11c-3-6.8-4.3-11-4.7-12.5c0-0.1-0.1-0.1-0.2-0.1l-2.4,0.2
	c-0.1,0-0.2,0.1-0.2,0.2l1.1,22.3V61c-0.5,1-1.1,1.6-1.8,1.6h-0.1c-1.3-0.3-1.9-1-1.9-1.9c-0.7-15.2-1.3-29.2-1.6-42
	c0-6.6,0.7-8.5,2.9-10.1C95.5,8.4,95.8,8.3,97.4,8.2z M95.8,20.3C96,27.9,96,32.7,96,34.6c0,0.1,0.1,0.2,0.2,0.2
	c1.2,0,7.7-0.4,8.7-4.9c0.5-2.3,1-4.4,1-7.2c0-5.1-1.2-8.4-3.6-9.9c-0.9-0.6-1.9-0.8-3-0.8h-1.7c-1.1,0-1.7,0.9-1.7,2.7
	C95.9,16.8,95.8,18.6,95.8,20.3z M120.3,9.7c0,0,1.7-0.1,1.7,1.1c0,9.4-0.6,21.5-1.7,36.2c0,7.4,0.9,11.1,2.8,11.1h8.3
	c0.6,0.3,1.1,0.9,1.3,1.6v0.1c0,1.5-0.9,2.2-2.5,2.2h-6.9c-4.4,0-6.6-3.6-6.6-10.8v-2.5c0-0.7,0.5-12.4,1.4-35.1
	C118.1,11,118.9,9.7,120.3,9.7z M165.7,10.8c1,0,1.7,0.5,2.2,1.4v0.6c0,1-0.4,1.6-1.1,1.9h-3.6c-2.4,0-6.4-1.2-6.9,2
	c-0.7,4.8-1.1,9.1-1.1,13.1c0,0.1,0.1,0.2,0.2,0.2c1.8,0,5.3-0.3,10.4-0.8c0.3,0,0.6,0.4,1.1,1.1v1.4c0,1.2-3.9,1.9-11.7,2.2
	c-0.1,0-0.2,0.1-0.2,0.2v3.7c0,13.3,0.7,19.9,2.2,19.9h1.4c2.4,0,5.4-0.2,9.1-0.6c1.1,0,1.7,0.6,1.7,1.9c0,1.5-1.7,2.2-5,2.2
	c-2.8,0.2-4.7,0.3-5.8,0.3c-4.2,0-6.4-2.1-6.4-6.4c-0.7-3.5-1.1-10.5-1.1-20.8c0-5.4,0.5-11.2,1.4-17.4c0-0.2-0.1-0.7-0.3-1.7
	c0-2.9,4.1-4.4,12.2-4.4L165.7,10.8L165.7,10.8z M213.2,0.3h3.1c1.6,0.2,3.3,1.3,5,3.3c2.8,6,4.2,15,4.2,27c0,15.6-1.9,25.3-5.8,29
	c-1,0.8-1.7,1.3-2.3,1.4c-0.1,0-0.2,0.1-0.1,0.2c2.5,5.5,5.1,9.6,7.7,12.4c0,0,1,2.2-1.4,2.8h-0.3c-2.1-0.3-5.4-4.9-9.8-13.7
	c0-0.2-0.1-0.3-0.3-0.3h-4.5c-8.5,0-12.8-9.2-12.8-27.6v-7.2c0-13.4,3.3-21.9,10-25.7C208.8,0.9,211.2,0.3,213.2,0.3L213.2,0.3z
	 M199.8,27.6v10.6c0,11.5,2.5,18.2,7.5,20.1c0.3,0.2,0.8,0.3,1.4,0.3h3.1c0.1,0,0.2-0.1,0.2-0.2c-1.6-4.1-1.3-5.3-1.3-5.3
	c0.3-1.2,1.7-1.1,1.7-1.1c1.4,0,2.5,1.7,3.3,5.1c0,0.1,0.1,0.1,0.2,0.1c3.3-0.2,5.2-8.4,5.7-24.6V29c0-9.3-1-16.5-3-21.6
	c-0.6-1.5-1.9-2.6-3.5-2.9H215c-1.8-0.4-3.6-0.4-5.3,0.1C203.1,6.6,199.8,14.2,199.8,27.6L199.8,27.6z M232.1,10.4h1.1
	c0.2,0,1.4,0.2,1.4,1.4c-0.2,1.9-0.3,3.3-0.3,4.2v6.4c0,4.2,0.2,9.6,0.6,16c-0.2,5.5-0.3,9.1-0.3,10.9c0,3.9,1.9,6.6,5.6,8.1
	l1.7,0.3h0.3c1.8,0,2.9-1.8,3.4-5.3c0.6-5.3,0.8-10.2,0.8-14.8V26.1c0-3.4-0.1-7.7-0.3-12.9c0.2-0.9,0.9-1.4,2-1.4h0.6
	c1.1,0,1.7,3.9,1.7,11.7v12.9c0,15.1-1.6,23.2-4.7,24.3c-1.2,0.6-2.6,0.8-3.9,0.8c-4.5,0-7.8-2.6-10.1-7.8c-0.6-1.7-0.8-3.4-0.8-5.3
	c0-2.5,0.1-5.9,0.3-10.1c-0.4-6.7-0.6-13.4-0.6-19.9v-0.8C230.4,12.9,231,10.4,232.1,10.4z M260,13.3c0.9,0,1.4,2.8,1.4,8.4v7.9
	c0,3.1-0.2,12.7-0.6,29c0,1.6-0.7,2.4-2.1,2.4h-0.3c-2.5,0-1.1-18.9-0.6-34.1l-0.5-12.2C257.7,12.6,260,13.3,260,13.3z M290.8,21.7
	c-0.2,3.1-0.3,6.1-0.1,9.2v21.7c0,5.7-0.8,8.9-2.5,9.4c-0.7,0.2-1.2,0.1-1.6-0.1c-0.2-0.1-0.3-0.2-0.4-0.3s-0.2-0.3-0.3-0.5
	c-0.5-0.9-1.1-2.4-1.7-4.6c-1-3.6-2.3-7.1-3.7-10.6c-4.1-9.8-6.5-15.7-7-17.8L273,27v4c0,1.8,0.3,11,0.8,27.5v1.9
	c-0.2,1.5-0.8,2.2-1.9,2.2c-0.7,0-1.9-0.6-1.9-1.4v-4.9c0-3-0.2-9.5-0.7-19.5c-0.1-2.2-0.1-4.4,0-6.6l0.3-12.9
	c0.1-3,0.1-4.8,0.1-5.4v-0.6c0-1.2,1-2.2,2.2-2.2h0.1c1.6,0.5,2.8,3.9,3.5,10.2c0.2,4.3,3.4,13.3,9.5,27.2c1.1,2.6,1.8,4.2,1.9,4.7
	v-28c0.3-9.4,1-13.9,1.9-14.1c0,0,2.9-0.5,2.8,1.5L290.8,21.7L290.8,21.7z"/>
<path d="M286.2,61.7c-0.2-0.2-0.3-0.4-0.3-0.5C286,61.4,286.2,61.6,286.2,61.7z"/>
<path d="M319.4,8.7c1,0.4,1.5,1,1.5,1.8c0,12.8-0.9,30.2-2.5,50.9c-0.1,1-0.9,1.7-1.8,1.8h-0.7c-1.3,0-3.5-8.1-6.5-24.4v-0.2
	c-2.5-8.5-4.5-14.8-5.9-18.9h-0.2v16.2c0,5.5-0.1,13.8-0.2,24.7c0,0-0.1,1.9-1,2.3h-0.5c-1.3,0-2-1.3-2-3.8
	c0.2-8.9,0.2-15.9,0.2-21.2v-7.5c0-4.5-0.1-11.2-0.2-20.2c0-0.1,0-1.3,1.8-1.3h0.7c0.8,0,3.4,6.2,7.7,18.5c2.2,6.4,4.2,14.8,6,25
	h0.3v-2.3c1-15.5,1.5-28.8,1.5-39.8C317.8,9.2,318.5,8.7,319.4,8.7L319.4,8.7z"/>
</svg>
