<svg id="Layer_1" data-name="Layer 1" xmlns="http://www.w3.org/2000/svg" viewBox="0 0 320.9 76.4"><defs><style>.cls-1{fill:#13cfb0;}</style></defs><title>wordmark-03</title><path class="cls-1" d="M142.2,13.2h.8c.9,0,1.4,2.8,1.4,8.4v7.9c0,3.1-.2,12.7-.6,29q0,2.4-2.1,2.4h-.3c-2.5,0-1.1-18.9-.6-34.1l-.5-12.2a1.84,1.84,0,0,1,1.9-1.4ZM20,0c6.2,0,9.4,2.6,9.3,7.9-.2,8.3-2.3,6.3-2.3,6.3a4.84,4.84,0,0,1-1.9-2.1V12q0-.45.3-3.9,0-4.2-5.1-4.2h-2c-5.8,0-9.7,1.5-11.8,4.5v.1C4.8,13.2,3.9,20,3.9,29v8.2c0,10.3,1.4,16.5,4.2,18.5a31,31,0,0,0,12.5,3.1,4.35,4.35,0,0,0,4.3-4.4V54c0-1.7-.1-4.9-.3-9.8,0-.1,0-.1.1-.2a3.4,3.4,0,0,1,1.9-.8c1.5,0,2.2,3.1,2.2,9.3v.9c0,6-2.6,9-7.9,9h-2A25.5,25.5,0,0,1,4.5,57.9C1.6,55.4,0,47.3,0,33.5v-.9C0,15.6,1.9,5.8,5.6,3.3Q11.3,0,20,0ZM53.8,11.2v.1c-.5,6.1-.9,12.7-1.1,19.7.2,9.6.7,19.1,1.7,28.8a2.23,2.23,0,0,1-2.2,1.7c-1.3,0-2-2.7-2.2-8.1-.6-6.3-.8-12-.8-17.1a.22.22,0,0,0-.2-.2c-.8.1-4.1.5-9.4.8a.22.22,0,0,0-.2.2c.2,3,.3,5.3.3,6.8v7c0,2.7.1,6.3.3,10.9,0,1.1-.7,1.7-2.2,1.9h-.1a6.94,6.94,0,0,1-1.6-1l-.1-.1c-.2-9.6-.3-17.3-.3-22.8V26.3c0-9.7.4-14.5,1.1-14.5a6.3,6.3,0,0,1,3,.8c.1,0,.1.1.1.2-.4,7.2-.5,13.9-.6,20.1a.22.22,0,0,0,.2.2c1,0,6.2-.3,9.5-.8.1,0,.1-.1.1-.2V27c0-11.2.7-16.8,2-16.8.3-.3,2.3.3,2.7,1ZM74.1,9.7c4.5,0,7.7,1.5,9.7,4.4,1.3,3.4,1.9,9.2,1.9,17.4,0,3.8-.3,12.9-.8,27.4a2.14,2.14,0,0,1-2.2,1.6h-.1A2.06,2.06,0,0,1,81,58.6l.8-19.9h-.3c-1.7,0-14.1-.4-15.7-.4a.22.22,0,0,0-.2.2l.1,22.9v.1c-.1.5-.8,1-1.9,1.4-1.3,0-2-.9-2-2.8V43.7c0-3.3-.3-8.9-.8-16.9,0-8.2,1.8-13.3,5.5-15.2A21.32,21.32,0,0,1,74.1,9.7ZM64.9,26.5c0,1,.1,3.5.3,7.6a.22.22,0,0,0,.2.2c8.9.4,14.3.5,16.3.6a.22.22,0,0,0,.2-.2V27.1c0-8.9-1.7-12.6-5-13.3a8.92,8.92,0,0,0-2.2-.3h-.3c-5.7.5-7.9,2.3-8.6,5.5C65.4,20,65.1,21.6,64.9,26.5ZM97.4,8.2h2.2c4.8,0,7.9,2.8,9.4,8.5a33.89,33.89,0,0,1,.8,6.8c0,6.7-2.4,11.3-7.2,13.9-.1,0-.1.2-.1.2.6,1.2,3.4,8.7,8.4,22.6v.1a2,2,0,0,1-1.3,1.5,6.38,6.38,0,0,1-1.4,0c-.7,0-2.1-3.7-4.4-11a93.34,93.34,0,0,1-4.7-12.5c0-.1-.1-.1-.2-.1l-2.4.2a.22.22,0,0,0-.2.2l1.1,22.3V61c-.5,1-1.1,1.6-1.8,1.6h-.1c-1.3-.3-1.9-1-1.9-1.9-.7-15.2-1.3-29.2-1.6-42,0-6.6.7-8.5,2.9-10.1A7.69,7.69,0,0,1,97.4,8.2ZM95.8,20.3c.2,7.6.2,12.4.2,14.3a.22.22,0,0,0,.2.2c1.2,0,7.7-.4,8.7-4.9a31.27,31.27,0,0,0,1-7.2q0-7.65-3.6-9.9a5.21,5.21,0,0,0-3-.8H97.6c-1.1,0-1.7.9-1.7,2.7C95.9,16.8,95.8,18.6,95.8,20.3ZM120.3,9.7s1.7-.1,1.7,1.1c0,9.4-.6,21.5-1.7,36.2,0,7.4.9,11.1,2.8,11.1h8.3a2.62,2.62,0,0,1,1.3,1.6v.1c0,1.5-.9,2.2-2.5,2.2h-6.9q-6.6,0-6.6-10.8V48.7c0-.7.5-12.4,1.4-35.1C118.1,11,118.9,9.7,120.3,9.7Zm45.4,1.1a2.4,2.4,0,0,1,2.2,1.4v.6a1.85,1.85,0,0,1-1.1,1.9h-3.6c-2.4,0-6.4-1.2-6.9,2a91.25,91.25,0,0,0-1.1,13.1.22.22,0,0,0,.2.2c1.8,0,5.3-.3,10.4-.8.3,0,.6.4,1.1,1.1v1.4c0,1.2-3.9,1.9-11.7,2.2a.22.22,0,0,0-.2.2v3.7c0,13.3.7,19.9,2.2,19.9h1.4a87.42,87.42,0,0,0,9.1-.6c1.1,0,1.7.6,1.7,1.9,0,1.5-1.7,2.2-5,2.2-2.8.2-4.7.3-5.8.3-4.2,0-6.4-2.1-6.4-6.4-.7-3.5-1.1-10.5-1.1-20.8a121.93,121.93,0,0,1,1.4-17.4,15,15,0,0,0-.3-1.7c0-2.9,4.1-4.4,12.2-4.4h1.3ZM213.2.3h3.1c1.6.2,3.3,1.3,5,3.3q4.2,9,4.2,27c0,15.6-1.9,25.3-5.8,29a6,6,0,0,1-2.3,1.4c-.1,0-.2.1-.1.2A46.72,46.72,0,0,0,225,73.6a1.93,1.93,0,0,1-1.4,2.8h-.3c-2.1-.3-5.4-4.9-9.8-13.7a.27.27,0,0,0-.3-.3h-4.5c-8.5,0-12.8-9.2-12.8-27.6V27.6c0-13.4,3.3-21.9,10-25.7A23.61,23.61,0,0,1,213.2.3ZM199.8,27.6V38.2q0,17.25,7.5,20.1a2.65,2.65,0,0,0,1.4.3h3.1a.22.22,0,0,0,.2-.2c-1.6-4.1-1.3-5.3-1.3-5.3.3-1.2,1.7-1.1,1.7-1.1q2.1,0,3.3,5.1c0,.1.1.1.2.1q5-.3,5.7-24.6V29q0-14-3-21.6a4.7,4.7,0,0,0-3.5-2.9H215a10.56,10.56,0,0,0-5.3.1c-6.6,2-9.9,9.6-9.9,23Zm32.3-17.2h1.1a1.44,1.44,0,0,1,1.4,1.4q-.3,2.85-.3,4.2v6.4c0,4.2.2,9.6.6,16-.2,5.5-.3,9.1-.3,10.9,0,3.9,1.9,6.6,5.6,8.1l1.7.3h.3c1.8,0,2.9-1.8,3.4-5.3a130.37,130.37,0,0,0,.8-14.8V26.1q0-5.1-.3-12.9a1.81,1.81,0,0,1,2-1.4h.6c1.1,0,1.7,3.9,1.7,11.7V36.4c0,15.1-1.6,23.2-4.7,24.3a8.81,8.81,0,0,1-3.9.8c-4.5,0-7.8-2.6-10.1-7.8a15.48,15.48,0,0,1-.8-5.3c0-2.5.1-5.9.3-10.1-.4-6.7-.6-13.4-.6-19.9v-.8C230.4,12.9,231,10.4,232.1,10.4ZM260,13.3c.9,0,1.4,2.8,1.4,8.4v7.9c0,3.1-.2,12.7-.6,29q0,2.4-2.1,2.4h-.3c-2.5,0-1.1-18.9-.6-34.1l-.5-12.2C257.7,12.6,260,13.3,260,13.3Zm30.8,8.4a70.62,70.62,0,0,0-.1,9.2V52.6c0,5.7-.8,8.9-2.5,9.4a2.1,2.1,0,0,1-1.6-.1,1.38,1.38,0,0,1-.4-.3,2.18,2.18,0,0,1-.3-.5,21.71,21.71,0,0,1-1.7-4.6,102.4,102.4,0,0,0-3.7-10.6c-4.1-9.8-6.5-15.7-7-17.8L273,27v4c0,1.8.3,11,.8,27.5v1.9c-.2,1.5-.8,2.2-1.9,2.2-.7,0-1.9-.6-1.9-1.4V56.3c0-3-.2-9.5-.7-19.5q-.15-3.3,0-6.6l.3-12.9c.1-3,.1-4.8.1-5.4v-.6a2.22,2.22,0,0,1,2.2-2.2h.1c1.6.5,2.8,3.9,3.5,10.2.2,4.3,3.4,13.3,9.5,27.2,1.1,2.6,1.8,4.2,1.9,4.7v-28c.3-9.4,1-13.9,1.9-14.1,0,0,2.9-.5,2.8,1.5l-.8,11.1Z"/><path class="cls-1" d="M286.2,61.7a.91.91,0,0,1-.3-.5C286,61.4,286.2,61.6,286.2,61.7Z"/><path class="cls-1" d="M319.4,8.7q1.5.6,1.5,1.8c0,12.8-.9,30.2-2.5,50.9a2,2,0,0,1-1.8,1.8h-.7c-1.3,0-3.5-8.1-6.5-24.4v-.2c-2.5-8.5-4.5-14.8-5.9-18.9h-.2V35.9c0,5.5-.1,13.8-.2,24.7,0,0-.1,1.9-1,2.3h-.5c-1.3,0-2-1.3-2-3.8.2-8.9.2-15.9.2-21.2V30.4c0-4.5-.1-11.2-.2-20.2,0-.1,0-1.3,1.8-1.3h.7c.8,0,3.4,6.2,7.7,18.5a171,171,0,0,1,6,25h.3V50.1c1-15.5,1.5-28.8,1.5-39.8a1.74,1.74,0,0,1,1.8-1.6Z"/></svg>